<?xml version="1.0" encoding="UTF-8"?>
<svg version="1.1" xmlns="http://www.w3.org/2000/svg" width="3038" height="742">
<path d="M0 0 C1002.54 0 2005.08 0 3038 0 C3038 244.86 3038 489.72 3038 742 C2035.46 742 1032.92 742 0 742 C0 497.14 0 252.28 0 0 Z " fill="#FEFEFE" transform="translate(0,0)"/>
<path d="M0 0 C0.99 0.495 0.99 0.495 2 1 C1.93016907 1.71171356 1.86033813 2.42342712 1.78839111 3.15670776 C1.08016976 10.89093338 0.82621899 18.55620725 0.796875 26.3203125 C0.78628555 28.18776375 0.78628555 28.18776375 0.77548218 30.09294128 C0.75792061 34.10366955 0.75078869 38.11424126 0.75 42.125 C0.74970543 42.80962185 0.74941086 43.4942437 0.74910736 44.19961166 C0.74761861 65.61691189 1.16230721 86.7368851 4 108 C4.20069735 109.54654769 4.40138033 111.09309725 4.60205078 112.63964844 C8.773637 144.35671318 14.48897032 176.13929579 23 207 C23.21881836 207.81533203 23.43763672 208.63066406 23.66308594 209.47070312 C34.79512634 250.69476398 50.01775711 290.47955011 69.6940918 328.35400391 C72.2113333 333.45437098 72.2113333 333.45437098 73 336 C71.70424973 338.3771185 70.53018308 340.08823981 68.8125 342.125 C68.12172363 342.9754187 68.12172363 342.9754187 67.41699219 343.84301758 C51.41514317 363.19616661 32.27627691 375.53646027 8 382 C7.38181396 382.18546387 6.76362793 382.37092773 6.12670898 382.56201172 C-1.8379275 384.69935721 -10.1249567 384.48502946 -18.3125 384.5 C-19.12724792 384.5023465 -19.94199585 384.50469299 -20.78143311 384.5071106 C-66.79661763 384.45256758 -109.68797297 363.38623136 -145 335 C-145.85303711 334.32356445 -146.70607422 333.64712891 -147.58496094 332.95019531 C-163.7316134 319.99075659 -178.22382715 305.0432079 -190 288 C-190.42168457 287.39639648 -190.84336914 286.79279297 -191.27783203 286.17089844 C-197.44512866 277.25521275 -202.51203944 267.86019175 -207 258 C-207.31743164 257.3095459 -207.63486328 256.6190918 -207.96191406 255.90771484 C-219.4423352 230.40940514 -221.96670262 200.57571401 -212.28125 174.05078125 C-201.84278987 149.1957893 -184.65542585 129.62235324 -165.8125 110.6875 C-165.15950928 110.02983643 -164.50651855 109.37217285 -163.83374023 108.69458008 C-159.38602432 104.26142298 -154.77023156 100.08250826 -150 96 C-149.4644751 95.53746826 -148.9289502 95.07493652 -148.37719727 94.59838867 C-123.04565792 72.76452671 -95.75002304 53.08572798 -67 36 C-65.39187292 35.03133992 -63.78380551 34.06258076 -62.17578125 33.09375 C-44.87764732 22.72147019 -27.29003994 12.90348613 -9.125 4.125 C-8.23288818 3.68969971 -7.34077637 3.25439941 -6.42163086 2.8059082 C-5.6044458 2.41878662 -4.78726074 2.03166504 -3.9453125 1.6328125 C-2.87047607 1.12065186 -2.87047607 1.12065186 -1.77392578 0.59814453 C-0.89583252 0.30206299 -0.89583252 0.30206299 0 0 Z " fill="#1E83F7" transform="translate(289,357)"/>
<path d="M0 0 C5.88650419 4.62248581 11.56583833 9.45120824 17.12890625 14.45703125 C17.80566406 15.0603125 18.48242188 15.66359375 19.1796875 16.28515625 C24.67542254 21.47921609 29.185374 27.629865 33.74560547 33.63818359 C34.62103099 34.7892461 35.50217578 35.93600032 36.39111328 37.07666016 C66.87735335 76.26974087 81.31538052 128.06980117 81.44140625 177.08203125 C81.44705597 178.30421356 81.44705597 178.30421356 81.45281982 179.55108643 C81.52828002 211.72390402 73.26778727 244.25085234 51.12890625 268.45703125 C50.35933594 269.3078125 49.58976562 270.15859375 48.796875 271.03515625 C35.94334648 284.57392943 18.88929777 293.94196231 1.12890625 299.45703125 C-0.07765625 299.84375 -1.28421875 300.23046875 -2.52734375 300.62890625 C-37.80562119 311.45100689 -75.02731743 312.72006106 -111.62711334 312.76665878 C-113.6391687 312.7694692 -115.6512196 312.77503854 -117.66326904 312.78067017 C-152.92235667 312.83215173 -187.54891401 309.79436582 -222.37109375 304.33203125 C-223.22816925 304.19792847 -224.08524475 304.06382568 -224.96829224 303.92565918 C-227.40539216 303.54221282 -229.8415285 303.15323486 -232.27734375 302.76171875 C-233.01564926 302.64514923 -233.75395477 302.52857971 -234.51463318 302.40847778 C-239.63854613 301.57330506 -239.63854613 301.57330506 -241.87109375 300.45703125 C-240.25274891 296.63846477 -237.70216106 293.78517692 -234.99609375 290.70703125 C-228.56684093 283.23513938 -222.66167481 275.4303934 -216.87109375 267.45703125 C-216.3311377 266.71630371 -215.79118164 265.97557617 -215.23486328 265.21240234 C-200.72005603 245.19680099 -187.8835088 224.10427266 -176.34521484 202.24511719 C-174.82148664 199.3632066 -173.27817839 196.4922928 -171.734375 193.62109375 C-155.76060668 163.67330441 -142.02346702 132.19104617 -131.09765625 100.046875 C-129.89085028 96.51485371 -128.60385244 93.01990828 -127.30859375 89.51953125 C-124.923307 82.84984409 -123.02481055 76.09604169 -121.18359375 69.26171875 C-120.30958408 66.02391021 -119.39174404 62.80374626 -118.43359375 59.58984375 C-111.27451829 35.51038378 -106.78404924 11.36358516 -103.87109375 -13.54296875 C-101.45757584 -14.34543283 -99.04089055 -15.13483451 -96.62109375 -15.91796875 C-95.95851563 -16.1396875 -95.2959375 -16.36140625 -94.61328125 -16.58984375 C-62.35304446 -26.93746687 -27.0359762 -19.71589069 0 0 Z " fill="#FEB400" transform="translate(677.87109375,162.54296875)"/>
<path d="M0 0 C0.69883301 0.09651855 1.39766602 0.19303711 2.11767578 0.29248047 C37.63246437 5.38513558 71.70179507 18.10834412 98 43 C99.17755859 44.09828125 99.17755859 44.09828125 100.37890625 45.21875 C105.72201063 50.35391631 110.00304636 55.76860481 114 62 C114.78697266 63.20462891 114.78697266 63.20462891 115.58984375 64.43359375 C139.38804812 102.28061088 130.14047875 151.17756009 121.04516602 192.27758789 C113.00221965 227.49973959 100.79501203 262.06324902 86 295 C85.44302318 296.25916664 84.88708172 297.51879162 84.33203125 298.77880859 C77.73428455 313.75517888 71.05744915 328.65343442 63.11669922 342.97949219 C62.29382544 344.46836481 61.48500211 345.96502387 60.68408203 347.46582031 C60.24306152 348.28405273 59.80204102 349.10228516 59.34765625 349.9453125 C58.94683838 350.69570801 58.54602051 351.44610352 58.13305664 352.21923828 C57 354 57 354 55 355 C54.67427002 354.45811035 54.34854004 353.9162207 54.01293945 353.35791016 C46.22937364 340.46268809 38.05214833 328.03909217 29 316 C28.53964355 315.38656738 28.07928711 314.77313477 27.60498047 314.14111328 C15.14776914 297.60633002 1.74938597 281.83329282 -12.39208984 266.72119141 C-14.11686444 264.87490217 -15.83421835 263.02189381 -17.55078125 261.16796875 C-25.75457205 252.31981468 -33.93177932 243.5446794 -43.1015625 235.6796875 C-44.97970753 234.01795424 -46.74305516 232.28874475 -48.5 230.5 C-52.16282908 226.78800543 -56.04106155 223.39153359 -60 220 C-60.99773437 219.13632813 -61.99546875 218.27265625 -63.0234375 217.3828125 C-77.28654354 205.05793496 -91.79099817 193.14181113 -107 182 C-107.71800781 181.47019531 -108.43601562 180.94039062 -109.17578125 180.39453125 C-119.86435435 172.51381448 -130.74414723 165.04672062 -142 158 C-142.72687012 157.54383301 -143.45374023 157.08766602 -144.20263672 156.61767578 C-158.67736504 147.56661454 -173.4399349 139.08679103 -188.78759766 131.59887695 C-190.53190702 130.74644494 -192.26634273 129.87389243 -194 129 C-194.96164063 128.60554687 -195.92328125 128.21109375 -196.9140625 127.8046875 C-199 126 -199 126 -199.62890625 122.25390625 C-199.63956705 120.68998385 -199.61499959 119.12557733 -199.5625 117.5625 C-199.54517822 116.72283691 -199.52785645 115.88317383 -199.51000977 115.01806641 C-198.45381683 86.05204235 -186.13343822 61.41900418 -166.015625 40.984375 C-164.0784284 39.21275076 -162.08090415 37.6006955 -160 36 C-159.07703125 35.2678125 -158.1540625 34.535625 -157.203125 33.78125 C-130.89015561 13.57367048 -96.84522968 2.16530999 -64 -1 C-62.95972656 -1.10957031 -61.91945313 -1.21914063 -60.84765625 -1.33203125 C-40.69817213 -3.06308659 -20.02876636 -2.84092824 0 0 Z " fill="#F92921" transform="translate(414,2)"/>
<path d="M0 0 C2.36892356 1.74924845 4.7518051 3.47807826 7.13769531 5.20410156 C15.4594276 11.24424088 23.56947727 17.40556265 31.33691406 24.14550781 C34.16243115 26.58521132 37.03822973 28.94484432 39.94238281 31.29003906 C44.3078185 34.84330067 48.51880299 38.53153001 52.67285156 42.32910156 C54.79171085 44.24601208 56.93120041 46.12992905 59.08691406 48.00488281 C69.05780539 56.71267816 78.5979306 65.91721874 88.00488281 75.22753906 C88.67197266 75.88165771 89.3390625 76.53577637 90.02636719 77.2097168 C93.62800947 80.8044186 96.6025324 84.31813144 99.25488281 88.66503906 C95.63944489 90.28947042 92.05111946 91.19306237 88.18066406 92.00708008 C32.119799 104.01462211 -22.04093742 131.30311244 -70.74511719 160.66503906 C-71.66019043 161.21546875 -72.57526367 161.76589844 -73.51806641 162.33300781 C-86.23156055 170.01080022 -98.60514306 178.11035241 -110.74511719 186.66503906 C-111.49889648 187.19597168 -112.25267578 187.7269043 -113.02929688 188.27392578 C-132.3855766 201.96485138 -150.85290559 216.58913048 -168.39746094 232.53613281 C-169.96313566 233.95592104 -171.53874041 235.36483491 -173.12402344 236.76269531 C-178.15023912 241.20803214 -182.99081134 245.80741238 -187.74511719 250.54003906 C-188.30948486 251.09981445 -188.87385254 251.65958984 -189.45532227 252.23632812 C-191.82699528 254.61703539 -193.87513977 256.86007293 -195.74511719 259.66503906 C-202.38429226 259.19878641 -207.54068341 257.90166405 -213.55761719 255.10253906 C-214.73372559 254.5635498 -214.73372559 254.5635498 -215.93359375 254.01367188 C-242.93100588 241.31879019 -262.3357496 218.54235468 -272.48388672 190.63330078 C-278.27915651 173.59383832 -280.29480014 156.46397141 -280.12011719 138.54003906 C-280.11579681 137.69330627 -280.11147644 136.84657349 -280.10702515 135.97418213 C-279.75235521 76.42740813 -257.34584719 16.96724003 -215.29101562 -25.80761719 C-197.82715808 -43.06186431 -176.74746102 -54.3854754 -152.74511719 -59.33496094 C-151.81570312 -59.52832031 -150.88628906 -59.72167969 -149.92871094 -59.92089844 C-96.17389361 -66.91232253 -41.13047328 -30.49486272 0 0 Z " fill="#ED79B5" transform="translate(280.7451171875,203.3349609375)"/>
<path d="M0 0 C4.93866983 0.70269651 9.24580663 2.65638238 13.8125 4.5625 C34.06700501 12.80051378 54.77807029 18.81063229 76 24 C76.81549316 24.20077148 77.63098633 24.40154297 78.47119141 24.60839844 C82.59236969 25.61792738 86.7219598 26.57998973 90.86181641 27.50976562 C93.13629456 28.03124908 95.40144693 28.58563369 97.66796875 29.140625 C128.4578861 36.47449595 160.25669587 39.6780295 191.78088379 41.83601379 C193.48907714 41.96224429 195.19619114 42.10314313 196.90270996 42.25028992 C204.71730509 42.90808375 212.46415296 43.1596041 220.3046875 43.16796875 C222.14895828 43.17445686 222.14895828 43.17445686 224.03048706 43.18107605 C227.97868192 43.19111455 231.92680103 43.1917762 235.875 43.1875 C236.54892288 43.18693855 237.22284576 43.18637711 237.91719055 43.18579865 C267.39351765 43.15501997 295.88318514 41.72456685 325.00878906 36.94482422 C325.84261612 36.81012222 326.67644318 36.67542023 327.53553772 36.53663635 C329.10462514 36.2817364 330.67262445 36.0200119 332.23924255 35.75035095 C339.02157479 34.6506435 339.02157479 34.6506435 342 36 C343.77339405 38.12023133 345.25898731 40.13042464 346.75 42.4375 C347.18393066 43.10273682 347.61786133 43.76797363 348.06494141 44.45336914 C356.02529998 57.04391066 361.08234914 70.42822962 364 85 C364.28810547 86.42505859 364.28810547 86.42505859 364.58203125 87.87890625 C369.18104077 122.22104275 355.74937132 156.81818872 335.46289062 184.06445312 C328.46061222 193.13074051 320.89599238 201.70609935 313 210 C312.31550781 210.72574219 311.63101562 211.45148438 310.92578125 212.19921875 C306.17062643 217.10869908 301.03423004 221.45516575 295.66796875 225.68261719 C294.496965 226.60749076 293.3306927 227.53837139 292.16796875 228.47363281 C281.03948674 237.41098585 269.41557061 244.97256361 257 252 C256.30600098 252.39590332 255.61200195 252.79180664 254.89697266 253.19970703 C245.88803612 258.30335773 236.68425817 262.35687431 227 266 C226.2884375 266.28359375 225.576875 266.5671875 224.84375 266.859375 C197.5296816 277.64124411 165.74724714 282.58927324 137 275 C135.98550781 274.73316406 134.97101563 274.46632813 133.92578125 274.19140625 C99.88458243 263.96541194 77.28578486 237.3939926 60.78271484 207.21118164 C52.15704566 191.07266742 44.6371515 174.57850883 37.9375 157.5625 C37.65973724 156.85858124 37.38197449 156.15466248 37.09579468 155.42941284 C34.32537605 148.37922915 31.64241179 141.34082819 29.58178711 134.04321289 C28.98960584 131.96349613 28.32172897 129.92181883 27.625 127.875 C18.78424689 101.53502424 11.67144057 74.86352433 6.74951172 47.52587891 C5.89678361 42.789809 5.04448369 38.07033878 3.953125 33.3828125 C2.78218353 28.25687292 2.07323488 23.0832622 1.375 17.875 C1.2409375 16.92496094 1.106875 15.97492188 0.96875 14.99609375 C0.28236261 9.94624369 -0.15526825 5.09562169 0 0 Z " fill="#18C249" transform="translate(325,463)"/>
<path d="M0 0 C11.22 0 22.44 0 34 0 C34 41.25 34 82.5 34 125 C39.33164553 124.02043929 39.33164553 124.02043929 42.125 120.125 C55.85016964 101.52960888 74.23647937 90.84888263 97 87 C101.76252705 86.62908761 106.48085622 86.52474511 111.25585938 86.55395508 C113.3668798 86.56246726 115.4751816 86.53357035 117.5859375 86.50195312 C139.76367009 86.38762827 160.84573795 95.08629472 176.875 110.4375 C193.4223922 127.94940322 201.42079036 150.59351393 205 174 C205.17200928 175.03012207 205.34401855 176.06024414 205.52124023 177.12158203 C206.07901462 181.64009496 206.18074407 186.05765899 206.203125 190.60546875 C206.20882507 191.52475662 206.21452515 192.44404449 206.22039795 193.39118958 C206.22981412 195.336872 206.23636842 197.28257012 206.24023438 199.22827148 C206.24982215 202.1336055 206.28082799 205.03819457 206.3125 207.94335938 C206.49985503 240.88942561 198.64562666 273.85572977 175.03515625 298.11328125 C159.3162056 313.49264082 138.81998275 321.10075223 117 322 C116.28569824 322.03254883 115.57139648 322.06509766 114.83544922 322.09863281 C102.87729736 322.57997334 92.39211989 321.70062493 81 318 C79.84757812 317.62617187 78.69515625 317.25234375 77.5078125 316.8671875 C62.47559475 311.52632896 50.7968207 302.13225319 40.88671875 289.75 C38.7974891 287.50618728 38.7974891 287.50618728 34 287 C34 297.23 34 307.46 34 318 C22.78 318 11.56 318 0 318 C0 213.06 0 108.12 0 0 Z " fill="#3AB6FF" transform="translate(2790,216)"/>
<path d="M0 0 C150.38 0 150.38 0 176 21 C176.70382812 21.54140625 177.40765625 22.0828125 178.1328125 22.640625 C191.80735836 33.68751303 199.73870706 50.27603122 204 67 C204.22558594 67.83144531 204.45117188 68.66289062 204.68359375 69.51953125 C210.19101298 93.63822925 205.13980453 122.0544643 192.80078125 143.2890625 C180.04905087 162.48581063 160.49878294 175.16841878 137.97094727 180.25683594 C117.12759679 184.25248056 96.06232994 183.43737462 74.9375 183.25 C55.1684375 183.12625 55.1684375 183.12625 35 183 C35 221.61 35 260.22 35 300 C23.45 300 11.9 300 0 300 C0 201 0 102 0 0 Z " fill="#18C249" transform="translate(892,233)"/>
<path d="M0 0 C11.55 0 23.1 0 35 0 C35 40.26 35 80.52 35 122 C86.48 122 137.96 122 191 122 C191 81.74 191 41.48 191 0 C202.55 0 214.1 0 226 0 C226 99.33 226 198.66 226 301 C214.45 301 202.9 301 191 301 C191 251.83 191 202.66 191 152 C139.52 152 88.04 152 35 152 C35 200.84 35 249.68 35 300 C23.45 300 11.9 300 0 300 C0 201 0 102 0 0 Z " fill="#01BF63" transform="translate(2221,233)"/>
<path d="M0 0 C10.89 0 21.78 0 33 0 C33.33 40.59 33.66 81.18 34 123 C35.32 123 36.64 123 38 123 C40.10084305 120.67179604 40.10084305 120.67179604 42.0625 117.625 C53.11055435 102.08356353 69.94508862 91.16535553 88.74902344 87.45800781 C111.56805788 84.2431904 139.51583693 85.10303518 158.64892578 99.21630859 C173.95720469 111.33593376 181.69298999 128.62182878 184.62556458 147.63446426 C186.05220708 160.45754672 185.48847138 173.56478873 185.40557575 186.44671416 C185.3802939 191.04838017 185.37819927 195.65006053 185.37347412 200.25178528 C185.36112204 208.93524607 185.32840749 217.61850152 185.28807616 226.30187255 C185.24311423 236.20052374 185.22131047 246.09918557 185.20129442 255.99791372 C185.1596664 276.33208198 185.08641323 296.66596934 185 317 C174.11 317 163.22 317 152 317 C151.97812622 309.93053955 151.97812622 309.93053955 151.95581055 302.71826172 C151.9053993 287.11992384 151.83894094 271.52168453 151.76428509 255.92344475 C151.71942547 246.4693196 151.67998841 237.01523129 151.65356445 227.56103516 C151.63050443 219.31543507 151.59701785 211.06995254 151.55129844 202.82444584 C151.5274736 198.4633387 151.50867479 194.10234721 151.50238609 189.74117661 C151.49628621 185.62562778 151.47611234 181.51037447 151.44572449 177.39493561 C151.43702204 175.89470863 151.43320524 174.3944429 151.43499184 172.89419174 C151.44801376 156.89554021 149.53678976 138.66429903 137.85546875 126.609375 C134.77126958 123.93423804 131.83915447 122.37156396 128 121 C126.97519531 120.62875 125.95039062 120.2575 124.89453125 119.875 C105.93357787 113.91997865 84.36735662 115.46988679 66.71557617 124.61669922 C51.3657404 133.12483986 43.00241094 146.32230146 38.11177063 162.81523132 C33.46792027 179.75439977 33.52466917 196.94598584 33.49388909 214.37919593 C33.48436756 217.99999748 33.45815588 221.62068201 33.43388367 225.2414093 C33.39058731 232.06540965 33.36181602 238.88938683 33.33856028 245.71348172 C33.31130819 253.49618891 33.26741108 261.27877619 33.22227156 269.06139696 C33.12995471 285.04088252 33.06023022 301.02035638 33 317 C22.11 317 11.22 317 0 317 C0 212.39 0 107.78 0 0 Z " fill="#1800AD" transform="translate(1160,216)"/>
<path d="M0 0 C2.39413667 -0.00433633 4.78636806 -0.04064764 7.18017578 -0.07861328 C24.54170348 -0.20638809 39.94846198 3.56437028 55.42626953 11.37060547 C56.49619141 11.90556641 57.56611328 12.44052734 58.66845703 12.99169922 C66.69980817 17.34114523 73.01119248 22.96487984 79.42626953 29.37060547 C80.08369141 30.01642578 80.74111328 30.66224609 81.41845703 31.32763672 C103.59958639 54.7864809 109.28621898 90.53474269 108.66845703 121.50341797 C107.66940011 150.71346841 101.85094329 181.19418049 81.42626953 203.37060547 C80.61673828 204.27166016 79.80720703 205.17271484 78.97314453 206.10107422 C68.53433487 217.165602 56.57232854 223.97665923 42.42626953 229.37060547 C41.61544922 229.68771484 40.80462891 230.00482422 39.96923828 230.33154297 C14.5088347 239.59821238 -19.17442678 237.54520481 -43.72607422 226.54638672 C-69.68109526 214.40735772 -85.34994297 194.3099731 -95.64770508 168.08837891 C-97.32761779 163.15803661 -98.29000274 158.10470054 -99.26123047 152.99560547 C-99.47328125 151.94888672 -99.68533203 150.90216797 -99.90380859 149.82373047 C-106.86507238 114.24881772 -103.73283003 72.53020422 -83.38476562 41.56103516 C-69.22497773 21.2749028 -49.68134406 8.09811626 -25.57373047 2.37060547 C-24.90631836 2.19255371 -24.23890625 2.01450195 -23.55126953 1.83105469 C-15.77989096 -0.02948717 -7.9434489 -0.00160182 0 0 Z M-49.53076172 51.52294922 C-64.67462178 69.76816624 -66.99418271 93.63411133 -66.88623047 116.43310547 C-66.88407532 117.24975677 -66.88192017 118.06640808 -66.87969971 118.9078064 C-66.7822921 141.90416568 -64.65614641 163.28110831 -50.57373047 182.37060547 C-49.82736328 183.42634766 -49.82736328 183.42634766 -49.06591797 184.50341797 C-40.02619825 196.08697842 -25.23900081 202.48920385 -11.09716797 204.98388672 C8.903534 207.17908572 29.14962873 204.96940039 45.86376953 193.12060547 C59.40163316 182.21409603 66.72636364 167.16923032 70.42626953 150.37060547 C70.60432129 149.57291748 70.78237305 148.77522949 70.96582031 147.95336914 C72.69729291 139.15082056 72.73113261 130.45047778 72.68701172 121.5168457 C72.67630304 118.94116602 72.68695503 116.36618579 72.69970703 113.79052734 C72.70789386 104.46628786 72.24702958 95.54999385 70.42626953 86.37060547 C70.29091797 85.62657471 70.15556641 84.88254395 70.01611328 84.1159668 C66.57842748 66.08362135 57.80067337 50.91910222 42.86376953 39.89794922 C30.97047699 32.44558161 17.39237038 29.81565059 3.55126953 29.99560547 C1.83955566 30.01192017 1.83955566 30.01192017 0.09326172 30.02856445 C-20.0125688 30.40837947 -35.79448973 36.41579181 -49.53076172 51.52294922 Z " fill="#FF67C4" transform="translate(1508.57373046875,302.62939453125)"/>
<path d="M0 0 C2.40511603 -0.00434267 4.80834539 -0.04067275 7.21313477 -0.07861328 C32.24623429 -0.26099007 57.4197682 7.91938614 75.55493164 25.55810547 C76.94905273 26.95029297 76.94905273 26.95029297 78.37133789 28.37060547 C79.59530273 29.57716797 79.59530273 29.57716797 80.84399414 30.80810547 C93.1189651 43.60944739 100.0271502 60.4226801 104.37133789 77.37060547 C104.80639648 79.05089844 104.80639648 79.05089844 105.25024414 80.76513672 C113.7719935 115.46965223 109.89214353 159.09508447 91.67626953 190.28320312 C77.47497184 213.3681465 55.37928735 227.09203942 29.37133789 233.37060547 C1.37341339 239.42330497 -31.02408484 235.21772593 -55.62866211 220.37060547 C-80.35379682 203.88264394 -94.32614704 178.51015485 -100.17773438 149.75341797 C-102.05489936 138.8420278 -101.93934978 127.72221951 -102.00366211 116.68310547 C-102.01178925 115.85643372 -102.01991638 115.02976196 -102.02828979 114.17803955 C-102.26958074 81.36165715 -93.06223179 50.08331757 -70.21069336 25.86279297 C-57.85769264 13.93962435 -42.13905725 6.49970611 -25.62866211 2.37060547 C-24.94570068 2.1851416 -24.26273926 1.99967773 -23.55908203 1.80859375 C-15.79504466 -0.05371199 -7.93680547 -0.00159646 0 0 Z M-48.25366211 50.05810547 C-69.12132921 75.27320321 -68.41956961 110.16900241 -66.00366211 141.05810547 C-65.44532708 145.99006493 -64.3620868 150.66575436 -63.00366211 155.43310547 C-62.73787354 156.37702148 -62.47208496 157.3209375 -62.19824219 158.29345703 C-58.54811077 170.67650395 -52.87829643 180.25382047 -43.62866211 189.37060547 C-43.0653418 189.94423828 -42.50202148 190.51787109 -41.92163086 191.10888672 C-29.45005851 202.85219207 -11.45797184 205.98813527 5.05102539 205.77514648 C24.53440663 205.12280113 41.40335213 198.88139791 55.12133789 184.74560547 C74.69030926 161.88596629 75.12654706 127.2139691 73.09790039 98.76123047 C70.90040925 78.11310614 64.22569089 57.22651857 47.96118164 43.30810547 C34.19429295 33.1847515 19.17978141 29.82865825 2.30883789 29.99560547 C1.13256836 29.98400391 -0.04370117 29.97240234 -1.25561523 29.96044922 C-19.56152927 30.02116535 -35.67994752 36.59224261 -48.25366211 50.05810547 Z " fill="#AF4D10" transform="translate(1938.628662109375,302.62939453125)"/>
<path d="M0 0 C16.09927585 13.3500149 22.57065006 33.32599559 25.03076172 53.47021484 C25.6645476 60.65215685 25.72454655 67.836821 25.7265625 75.04296875 C25.72846588 75.77219543 25.73036926 76.50142212 25.73233032 77.25274658 C25.72827205 90.9793788 25.03108902 104.81763322 20.6015625 117.91796875 C20.33770752 118.71710693 20.07385254 119.51624512 19.80200195 120.33959961 C14.75696897 135.11787305 5.80622314 148.23641496 -8.2734375 155.66796875 C-17.524918 160.06484929 -26.39654271 162.77476247 -36.6484375 163.10546875 C-38.47181641 163.20021484 -38.47181641 163.20021484 -40.33203125 163.296875 C-57.7823226 163.95932578 -73.5993349 159.31482235 -87.0234375 147.73046875 C-105.80540513 129.70828945 -111.18653469 106.27245619 -111.8671875 81.18359375 C-112.33054166 54.33724148 -110.05029776 26.65656812 -90.6484375 6.10546875 C-67.13646218 -16.87729812 -26.67507897 -19.08173053 0 0 Z " fill="#FEFEFF" transform="translate(2935.6484375,344.89453125)"/>
<path d="M0 0 C11.22 0 22.44 0 34 0 C34.029729 7.23719971 34.029729 7.23719971 34.06005859 14.62060547 C34.12698143 30.56620327 34.20452217 46.51173641 34.28752708 62.45725822 C34.33759117 72.12448428 34.3840347 81.79170211 34.421875 91.45898438 C34.45487625 99.88763825 34.49475214 108.31622719 34.54279006 116.74480927 C34.56797434 121.2052551 34.58977923 125.6656583 34.60334396 130.12615585 C34.61623786 134.33027687 34.63837022 138.53425108 34.66738319 142.73829079 C34.67640198 144.27567895 34.68213577 145.81309071 34.68421364 147.35050392 C34.70662503 161.4223936 35.8585975 175.57324688 45 187 C55.49581853 197.25275747 67.43699252 201.11082137 81.9375 201.5 C99.24000244 200.97465468 116.15881022 195.69113018 128.81640625 183.44921875 C134.98797106 176.52690903 139.00783355 168.71743731 142 160 C142.52400391 158.59041016 142.52400391 158.59041016 143.05859375 157.15234375 C149.32102826 139.0073412 148.33059734 119.16315674 148.40471697 100.22659135 C148.4205918 96.68988908 148.44730096 93.15326693 148.4727478 89.61662292 C148.51911258 82.95200137 148.55605804 76.28736401 148.58942068 69.62266606 C148.62794543 62.02135255 148.67727349 54.42012035 148.72740483 46.81887591 C148.83009368 31.21263738 148.91812924 15.60636374 149 0 C159.89 0 170.78 0 182 0 C182 74.58 182 149.16 182 226 C171.77 226 161.54 226 151 226 C151 214.45 151 202.9 151 191 C149.35 191 147.7 191 146 191 C144.23777688 193.01187807 144.23777688 193.01187807 142.875 195.75 C133.88684878 210.86643615 120.09758234 223.00442677 103 228 C79.6833306 233.57855826 52.89879192 233.41802881 31.625 221.3203125 C18.184067 213.04075473 8.47416561 200.20347536 4 185 C0.92551855 171.98192538 -0.14658639 159.55454414 -0.11352539 146.22070312 C-0.113243 144.62348431 -0.11340226 143.02626537 -0.1139679 141.42904663 C-0.11425385 137.11146477 -0.1083898 132.7939109 -0.10139394 128.47633553 C-0.09512674 123.95732898 -0.09455394 119.43832174 -0.09336853 114.91931152 C-0.09026513 106.37015728 -0.08206512 97.82101588 -0.07201904 89.27186728 C-0.0608271 79.53547215 -0.0553397 69.79907639 -0.05032361 60.06267643 C-0.03988166 40.04177553 -0.02154852 20.02089224 0 0 Z " fill="#FF914E" transform="translate(2529,307)"/>
<path d="M0 0 C19.5215625 -0.0928125 19.5215625 -0.0928125 39.4375 -0.1875 C45.5485022 -0.22846802 45.5485022 -0.22846802 51.78295898 -0.27026367 C56.84777832 -0.28381348 56.84777832 -0.28381348 59.23622131 -0.28633118 C60.86633275 -0.2908681 62.49643564 -0.30126939 64.1264801 -0.31672668 C78.27503241 -0.44391293 93.85694451 -0.3379248 106.5625 6.6875 C107.2210498 7.03635254 107.87959961 7.38520508 108.55810547 7.74462891 C120.6217174 14.40608781 127.87358417 25.73782952 131.84375 38.76953125 C136.81009247 58.15206227 135.55410987 80.0650949 126.01171875 97.76953125 C118.10493034 110.46645167 107.38945256 117.41079415 93 121 C82.69878225 123.30726806 72.59780455 123.26058692 62.109375 123.1953125 C60.51318502 123.1923645 58.91699309 123.19032873 57.32080078 123.18920898 C51.46383731 123.17880935 45.60691549 123.15088717 39.75 123.125 C20.07375 123.063125 20.07375 123.063125 0 123 C0 82.41 0 41.82 0 0 Z " fill="#FEFEFE" transform="translate(927,263)"/>
<path d="M0 0 C0 17.82 0 35.64 0 54 C24.09 54 48.18 54 73 54 C73 62.91 73 71.82 73 81 C48.91 81 24.82 81 0 81 C0.06153605 106.45420582 0.06153605 106.45420582 0.16015625 131.90820312 C0.20862754 142.29500097 0.25309813 152.68170196 0.27099609 163.06860352 C0.28405258 170.63486256 0.31111847 178.20092359 0.35461307 185.76707107 C0.37713858 189.76880566 0.39291608 193.77029684 0.39188385 197.77210045 C0.39113191 201.54875564 0.40929354 205.3248746 0.44116783 209.10139084 C0.45357588 211.12777232 0.44664461 213.1542443 0.43885803 215.1806488 C0.56965518 226.8186122 2.50469675 238.44129897 11 247 C18.95454889 253.29735121 29.01890863 255.02047573 39 254 C52.51329539 251.72344501 52.51329539 251.72344501 64 245 C66.31 245 68.62 245 71 245 C74.3 252.59 77.6 260.18 81 268 C68.89865182 280.10134818 53.70672159 283.91612762 37 285 C36.31679687 285.04527832 35.63359375 285.09055664 34.9296875 285.13720703 C16.53511422 286.16630418 -1.47517337 282.49761764 -15.8125 270.375 C-28.26265282 258.37333971 -33.28795497 241.51835106 -34.18126297 224.55867767 C-34.24420527 220.75275744 -34.24812412 216.94967327 -34.22705078 213.14355469 C-34.22648521 211.6935273 -34.22680607 210.24349935 -34.22793579 208.79347229 C-34.2285046 204.89549541 -34.21682755 200.99764411 -34.20278788 197.09969616 C-34.19020106 193.0118036 -34.1891038 188.92390748 -34.18673706 184.83599854 C-34.18054549 177.11214824 -34.16416643 169.38835523 -34.14403808 161.66453004 C-34.12160637 152.8639436 -34.11066744 144.06335429 -34.10064721 135.26274633 C-34.07979788 117.17512524 -34.04315103 99.08758258 -34 81 C-46.87 81 -59.74 81 -73 81 C-73 72.09 -73 63.18 -73 54 C-60.13 54 -47.26 54 -34 54 C-34.01160156 50.54660156 -34.02320313 47.09320313 -34.03515625 43.53515625 C-34.04294569 40.20581148 -34.04902309 36.87646771 -34.05493164 33.54711914 C-34.05997333 31.22582549 -34.06680651 28.90453503 -34.07543945 26.58325195 C-34.08751225 23.25471205 -34.09322979 19.92621398 -34.09765625 16.59765625 C-34.10281754 15.55287613 -34.10797882 14.50809601 -34.11329651 13.43165588 C-34.11337204 12.47073532 -34.11344757 11.50981476 -34.11352539 10.51977539 C-34.115746 9.66928116 -34.11796661 8.81878693 -34.12025452 7.94252014 C-34 6 -34 6 -33 5 C-30.73881801 4.5577957 -28.46667496 4.17141731 -26.19140625 3.80859375 C-25.50948715 3.69902847 -24.82756805 3.5894632 -24.12498474 3.47657776 C-22.68022694 3.24524591 -21.23515225 3.01588606 -19.78979492 2.78833008 C-17.57464072 2.43941233 -15.36051209 2.08450428 -13.14648438 1.72851562 C-2.31422095 0 -2.31422095 0 0 0 Z " fill="#FFDE5A" transform="translate(1725,253)"/>
<path d="M0 0 C1.875 1.375 1.875 1.375 3 3 C3 3.66 3 4.32 3 5 C-1.571279 4.45144652 -5.67435795 3.58255197 -10 2 C-6.60268371 -0.09065618 -3.95730595 -0.42098999 0 0 Z " fill="#B7D2FA" transform="translate(1898,389)"/>
</svg>
