<?xml version="1.0" encoding="UTF-8"?>
<svg version="1.1" xmlns="http://www.w3.org/2000/svg" width="1011" height="247">
<path d="M0 0 C0.80703369 0.27372437 0.80703369 0.27372437 1.63037109 0.55297852 C26.56191736 8.94489942 51.40895442 14.18812104 77.77416992 14.18530273 C80.03388809 14.18747253 82.29310313 14.20564158 84.55273438 14.22460938 C94.83467748 14.2627792 104.81968659 13.42052756 115 12 C122.38974038 21.38696751 124.15528007 30.05335385 123 42 C119.62473697 58.35395302 108.36511096 71.59154535 95 81 C80.2567969 90.47160059 63.63476891 97.1814715 45.85546875 93.31640625 C32.63785535 88.86123866 25.19220993 79.77650733 19 67.625 C8.6738515 46.50829949 2.20777016 23.40997667 0 0 Z " fill="#19C148" transform="translate(107,153)"/>
<path d="M0 0 C8.47325284 5.76749253 16.09911153 12.03038741 23.5234375 19.09765625 C24.93324657 20.33468233 26.34939205 21.56454587 27.7734375 22.78515625 C35.51657743 29.53640635 35.51657743 29.53640635 38.5234375 33.09765625 C38.5234375 33.75765625 38.5234375 34.41765625 38.5234375 35.09765625 C36.76193359 35.62552734 36.76193359 35.62552734 34.96484375 36.1640625 C1.12430102 46.46643878 -29.64049812 62.86932929 -55.39135742 87.30224609 C-59.29743728 91.00809364 -59.29743728 91.00809364 -61.4765625 92.09765625 C-71.86522041 88.97243758 -79.349333 82.49269898 -84.4765625 73.09765625 C-87.95983808 65.47780209 -89.13336695 58.68532732 -88.9765625 50.34765625 C-88.96302734 49.29707031 -88.94949219 48.24648437 -88.93554688 47.1640625 C-88.43004133 28.04889919 -80.85128003 9.57540564 -67.3203125 -4.078125 C-45.91493814 -24.12733695 -21.63565884 -14.28369009 0 0 Z " fill="#EC7AB4" transform="translate(88.4765625,62.90234375)"/>
<path d="M0 0 C1.13381104 0.00757324 2.26762207 0.01514648 3.43579102 0.02294922 C19.61554597 0.33873046 34.36761892 4.24931097 46.53125 15.515625 C55.84533222 25.93046239 56.07568056 38.20816853 55.47949219 51.43847656 C53.77167832 73.75633351 44.47308998 102.81133941 30.25 120.4375 C29.53457031 119.38433594 28.81914062 118.33117187 28.08203125 117.24609375 C15.35203724 98.72934579 0.92789649 82.39996175 -16.75 68.4375 C-17.79727577 67.56714911 -18.84278782 66.69467251 -19.88671875 65.8203125 C-27.94870162 59.15979395 -36.47480434 53.84817667 -45.59765625 48.75 C-46.31904785 48.34579834 -47.04043945 47.94159668 -47.78369141 47.52514648 C-49.43642466 46.61095147 -51.10518217 45.72581078 -52.77734375 44.84765625 C-53.42832031 44.38230469 -54.07929687 43.91695312 -54.75 43.4375 C-56.01985228 34.38980248 -52.71867028 25.81513347 -47.4609375 18.53125 C-35.87294115 4.35050561 -17.63936077 -0.16634679 0 0 Z " fill="#F82922" transform="translate(125.75,-0.4375)"/>
<path d="M0 0 C0.01458252 0.82910889 0.02916504 1.65821777 0.04418945 2.51245117 C0.37064229 19.19384508 0.97923205 35.54942961 4 52 C4.13245117 52.77102051 4.26490234 53.54204102 4.40136719 54.33642578 C7.49404754 72.15490739 12.5739921 90.39864691 21.73730469 106.0925293 C23.34397876 108.95575572 24.12529092 110.43619087 23.3984375 113.70703125 C18.45822164 121.80732932 10.83123767 126.05625411 2 129 C-18.06883257 130.27920458 -35.02027514 125.34869708 -50.59765625 112.14453125 C-51.39042969 111.43683594 -52.18320312 110.72914063 -53 110 C-53.84433594 109.26136719 -54.68867187 108.52273437 -55.55859375 107.76171875 C-66.67887406 97.42002732 -72.75767904 85.18088861 -74.4375 70.0625 C-73.9252901 59.81830193 -69.7418868 51.46028458 -63 44 C-62.08734375 42.89398438 -62.08734375 42.89398438 -61.15625 41.765625 C-50.73771441 29.38293926 -17.9176673 0 0 0 Z " fill="#1E82F5" transform="translate(97,118)"/>
<path d="M0 0 C14.92313601 9.90747619 23.29751085 26.56555571 27.17895508 43.67749023 C29.89225902 57.56064044 30.09848509 73.11748756 22.94140625 85.6953125 C14.71326723 97.52045218 4.22891053 101.95923794 -9.56787109 104.43579102 C-16.26760341 105.5461355 -22.95132675 106.1247897 -29.73828125 106.375 C-30.7746875 106.41625 -31.81109375 106.4575 -32.87890625 106.5 C-48.4128367 106.80017257 -64.51341703 105.51345885 -79.73828125 102.375 C-79.73828125 98.57662407 -78.74527327 97.89772954 -76.30078125 95.0625 C-71.63191194 89.38904153 -67.66708849 83.39190441 -63.82763672 77.14550781 C-62.81105114 75.49327145 -61.77725847 73.85165665 -60.7421875 72.2109375 C-48.12448952 51.34222978 -39.11210306 26.46824367 -35.2578125 2.37109375 C-34.86328125 -0.0625 -34.86328125 -0.0625 -33.73828125 -3.625 C-22.56471026 -8.74483029 -10.06563356 -5.9733289 0 0 Z " fill="#FDB402" transform="translate(224.73828125,52.625)"/>
<path d="M0 0 C4.29 0 8.58 0 13 0 C13 13.53 13 27.06 13 41 C29.83 41 46.66 41 64 41 C64 27.47 64 13.94 64 0 C68.29 0 72.58 0 77 0 C77 33.33 77 66.66 77 101 C72.71 101 68.42 101 64 101 C64 84.5 64 68 64 51 C47.17 51 30.34 51 13 51 C13 67.5 13 84 13 101 C8.71 101 4.42 101 0 101 C0 67.67 0 34.34 0 0 Z " fill="#07BA64" transform="translate(738,77)"/>
<path d="M0 0 C3.96 0 7.92 0 12 0 C12 13.53 12 27.06 12 41 C15.3 38.36 18.6 35.72 22 33 C31.03224043 28.40984503 38.96990143 27.96031954 48.625 30.6875 C57.30060259 33.56267084 61.87927968 37.84654628 66 46 C71.58737493 59.26132142 71.84350053 75.7085216 66.8125 89.1796875 C63.12672624 97.21227053 58.48932188 103.26815993 50.25 106.875 C41.09921885 109.74021523 31.85452518 109.81029338 23 106 C20.13407429 104.20003035 17.58996215 102.16803849 15 100 C14.34 99.67 13.68 99.34 13 99 C12.67 101.64 12.34 104.28 12 107 C8.04 107 4.08 107 0 107 C0 71.69 0 36.38 0 0 Z M19.5703125 45.3515625 C12.47399859 52.80092685 11.81556676 62.13282164 12 72 C12.69030622 81.15178697 14.62320186 87.09055547 21.5625 93.3125 C27.46623322 98.32212663 34.60766492 97.59305739 42 97 C47.19908652 95.4552799 51.32906153 91.67658825 54 87 C58.3424024 76.71077344 58.83049008 63.77530123 55.11328125 53.22265625 C52.67162033 48.34790165 49.26836324 44.33775268 44.5625 41.5625 C35.56691507 39.5878594 27.12459811 39.2729978 19.5703125 45.3515625 Z " fill="#3CB6FA" transform="translate(928,71)"/>
<path d="M0 0 C52.54198473 0 52.54198473 0 62 9 C68.53927787 15.89275235 70.34770914 24.11167456 70.2109375 33.31640625 C69.49872377 42.37734754 65.89078262 49.18446019 59.4765625 55.5 C50.43023431 62.91357628 37.78579279 62.40206376 26.75 62.1875 C22.2125 62.125625 17.675 62.06375 13 62 C13 74.87 13 87.74 13 101 C8.71 101 4.42 101 0 101 C0 67.67 0 34.34 0 0 Z M13 11 C13 24.2 13 37.4 13 51 C17.269375 51.061875 21.53875 51.12375 25.9375 51.1875 C27.26515381 51.21481201 28.59280762 51.24212402 29.96069336 51.27026367 C38.23569882 51.3280006 45.33439662 50.96367933 51.9375 45.625 C55.63365701 40.92080017 56.29317345 36.99575192 56.3125 31.0625 C56.32925781 29.87785156 56.34601563 28.69320312 56.36328125 27.47265625 C55.80391914 22.12563563 54.00097285 18.97872901 50.1875 15.25 C45.00902367 11.59460494 40.56401832 10.7471191 34.2890625 10.8046875 C33.16709473 10.80968262 32.04512695 10.81467773 30.88916016 10.81982422 C29.4819873 10.83803223 28.07481445 10.85624023 26.625 10.875 C22.12875 10.91625 17.6325 10.9575 13 11 Z " fill="#1CBE4C" transform="translate(296,77)"/>
<path d="M0 0 C1.50046875 0.00386719 1.50046875 0.00386719 3.03125 0.0078125 C4.0315625 0.00523438 5.031875 0.00265625 6.0625 0 C8.53125 0.1328125 8.53125 0.1328125 9.53125 1.1328125 C9.69148562 4.01533895 9.79079029 6.87659777 9.84765625 9.76171875 C9.86843735 10.62594955 9.88921844 11.49018036 9.91062927 12.38059998 C9.97622114 15.15208695 10.03505418 17.92367171 10.09375 20.6953125 C10.13692608 22.56967173 10.18054006 24.44402093 10.22460938 26.31835938 C10.33191227 30.92307586 10.43315215 35.52789108 10.53125 40.1328125 C11.68173828 38.96298828 11.68173828 38.96298828 12.85546875 37.76953125 C19.12689218 31.58966145 24.87826514 29.42824011 33.46875 28.8828125 C41.98854961 29.15062545 48.56828736 31.16984986 54.71875 37.3203125 C59.87246775 45.31746073 59.94187716 53.41178045 59.82421875 62.69921875 C59.81997391 63.97385483 59.81572906 65.24849091 59.81135559 66.56175232 C59.79748423 69.92056743 59.77061858 73.27874949 59.73724365 76.63739014 C59.70633729 80.07656438 59.69280672 83.5158045 59.67773438 86.95507812 C59.6447748 93.68118424 59.59304855 100.40691204 59.53125 107.1328125 C55.57125 107.1328125 51.61125 107.1328125 47.53125 107.1328125 C47.51666748 105.50335693 47.50208496 103.87390137 47.48706055 102.19506836 C47.42898638 96.13609124 47.35175298 90.07748219 47.26879883 84.01879883 C47.23559257 81.39906803 47.20754734 78.77926644 47.18481445 76.15942383 C47.15119046 72.38852839 47.09886804 68.61827928 47.04296875 64.84765625 C47.03657883 63.68072739 47.0301889 62.51379852 47.02360535 61.31150818 C46.85626099 51.37646401 46.85626099 51.37646401 41.59375 43.2578125 C36.26884666 40.35331977 29.84059019 40.16009909 24.0859375 41.8515625 C17.77422218 44.43457471 14.81385126 47.31104983 11.96166992 53.5859375 C10.02854663 58.87518491 10.05412386 64.05394322 10.01953125 69.6328125 C10.00158005 70.70909912 9.98362885 71.78538574 9.96513367 72.89428711 C9.91126999 76.30708993 9.87721135 79.71975481 9.84375 83.1328125 C9.81055585 85.45705034 9.77606427 87.78127004 9.74023438 90.10546875 C9.65555704 95.7811501 9.58863157 101.45679222 9.53125 107.1328125 C5.24125 107.1328125 0.95125 107.1328125 -3.46875 107.1328125 C-3.49187041 93.32940303 -3.50966354 79.52599813 -3.52056217 65.72257328 C-3.52579166 59.31382122 -3.5328905 52.90508235 -3.54418945 46.49633789 C-3.55501599 40.31721809 -3.56102634 34.13811102 -3.56362724 27.95898247 C-3.56548192 25.5957564 -3.56910332 23.23253106 -3.57448006 20.86931038 C-3.58168738 17.57179354 -3.58274107 14.27433003 -3.58227539 10.97680664 C-3.58587067 9.98922363 -3.58946594 9.00164062 -3.59317017 7.98413086 C-3.5917955 7.09085587 -3.59042084 6.19758087 -3.58900452 5.27723694 C-3.58992631 4.49647828 -3.5908481 3.71571962 -3.59179783 2.91130161 C-3.39540934 0.07277294 -2.84320933 0.15295746 0 0 Z " fill="#1903A7" transform="translate(388.46875,70.8671875)"/>
<path d="M0 0 C8.23959726 5.8812673 12.50570514 13.99847003 14.5 23.8125 C16.4590749 37.09436372 15.00687547 51.15371367 7 62.25 C0.24328428 70.13283501 -7.5361621 72.97356301 -17.75 74.3125 C-27.24185696 74.60986394 -37.05661071 72.56163363 -44.625 66.5625 C-53.85302243 57.75393313 -56.33411708 46.6458746 -56.7421875 34.30859375 C-56.76398467 23.15934142 -54.24688073 12.85921417 -46.9296875 4.14453125 C-34.22983916 -7.91261221 -14.63900078 -8.96913737 0 0 Z M-36.75 11.3125 C-42.32704179 18.5331536 -42.97889406 24.51953288 -43.0625 33.4375 C-43.09150391 34.44554687 -43.12050781 35.45359375 -43.15039062 36.4921875 C-43.21944569 44.69380444 -41.64447253 50.80866483 -36.375 57.1875 C-29.25522078 62.9511308 -22.61659304 63.20422593 -13.75 62.3125 C-8.24870053 60.87514648 -4.95354423 58.00153415 -1.7578125 53.38671875 C1.36208254 46.96553942 1.58745576 40.89755216 1.5625 33.875 C1.57861328 32.97201172 1.59472656 32.06902344 1.61132812 31.13867188 C1.6165493 23.92823421 0.41059538 17.91201718 -4 12 C-9.44902431 6.67481715 -13.73320808 6.09379403 -21.1875 5.8125 C-27.62018118 5.96490311 -32.18214706 6.59802462 -36.75 11.3125 Z " fill="#FA67C2" transform="translate(523.75,105.6875)"/>
<path d="M0 0 C8.42669668 7.71841829 11.61054027 17.7263925 12.34375 28.85546875 C12.67040303 41.24106268 10.54774282 53.6959617 2.125 63.22265625 C-6.71241099 71.31742766 -16.94449935 72.4482652 -28.4296875 71.95703125 C-33.80549698 71.55615396 -38.22466903 70.28720758 -42.875 67.53515625 C-43.514375 67.19613281 -44.15375 66.85710937 -44.8125 66.5078125 C-52.46658217 61.87247394 -55.90118738 53.49898477 -58.27294922 45.22241211 C-59.25060883 40.85862485 -59.36490234 36.61806831 -59.3125 32.16015625 C-59.30420166 31.24331055 -59.29590332 30.32646484 -59.28735352 29.38183594 C-59.00662743 18.08485899 -56.18138483 8.55566168 -47.875 0.53515625 C-34.34938451 -10.03528275 -13.75980367 -10.74984662 0 0 Z M-40.875 10.53515625 C-47.24505166 19.2712271 -47.40609154 29.81080818 -46.4140625 40.26171875 C-45.23299321 47.43371924 -42.59709488 52.90298421 -36.875 57.53515625 C-30.10082993 61.54875412 -23.55512834 61.41594267 -15.875 60.53515625 C-10.7008857 58.65576944 -6.70502784 55.25186932 -3.875 50.53515625 C0.65092912 40.62121628 0.94944622 26.96089285 -2.78125 16.71875 C-5.2750347 11.74008698 -8.2216503 7.78206267 -13.34375 5.375 C-23.0496438 2.23227836 -33.41279232 2.85974264 -40.875 10.53515625 Z " fill="#AB4D12" transform="translate(669.875,107.46484375)"/>
<path d="M0 0 C0.9075 0.00257812 1.815 0.00515625 2.75 0.0078125 C4.11125 0.00394531 4.11125 0.00394531 5.5 0 C7.75 0.1328125 7.75 0.1328125 8.75 1.1328125 C8.85712773 2.70083754 8.89622326 4.27357659 8.90771484 5.84521484 C8.91797699 6.85071381 8.92823914 7.85621277 8.93881226 8.8921814 C8.94611359 9.98994904 8.95341492 11.08771667 8.9609375 12.21875 C8.98903418 14.53516298 9.01769878 16.85156912 9.046875 19.16796875 C9.08794541 22.82567958 9.12482187 26.4832667 9.15136719 30.14111328 C9.1791888 33.66726328 9.22509269 37.19282926 9.2734375 40.71875 C9.27669037 41.79627533 9.27994324 42.87380066 9.28329468 43.98397827 C9.39249399 50.81958987 9.7971098 57.85637898 12.75 64.1328125 C17.9335538 67.83034149 24.14485902 67.49798794 30.234375 66.70703125 C34.83522157 65.65683801 37.54292292 63.23642583 40.9375 60.1328125 C47.6363951 49.04498612 46.29861216 34.84874539 46.4375 22.3828125 C46.47073003 20.31768742 46.50522479 18.25258229 46.54101562 16.1875 C46.62526452 11.16938198 46.6923784 6.15130401 46.75 1.1328125 C50.50401344 0.32838105 53.89987889 -0.04219301 57.75 0.1328125 C59.42335996 1.80617246 58.86962895 3.84669159 58.87442017 6.08029175 C58.86902725 7.14088303 58.86902725 7.14088303 58.86352539 8.22290039 C58.86367142 8.96431778 58.86381744 9.70573517 58.8639679 10.46961975 C58.86326865 12.93159871 58.85547574 15.39350293 58.84765625 17.85546875 C58.84579211 19.55797789 58.84436819 21.26048757 58.84336853 22.96299744 C58.83954302 27.45274323 58.82971247 31.94245688 58.81866455 36.43218994 C58.80845113 41.01012741 58.80387106 45.58807006 58.79882812 50.16601562 C58.78809022 59.15496207 58.77101341 68.14388462 58.75 77.1328125 C54.79 77.1328125 50.83 77.1328125 46.75 77.1328125 C46.42 73.8328125 46.09 70.5328125 45.75 67.1328125 C44.863125 68.2259375 43.97625 69.3190625 43.0625 70.4453125 C38.15623634 76.10463058 33.13041008 78.29666332 25.75 79.1328125 C17.62643751 79.34082825 10.3800169 78.04754062 3.75 73.1328125 C-3.67112844 64.96084047 -3.54392936 54.56262599 -3.48046875 44.13671875 C-3.48001053 42.90743149 -3.47955231 41.67814423 -3.4790802 40.41160583 C-3.47607073 37.82720976 -3.46822377 35.24281528 -3.45581055 32.65844727 C-3.43744903 28.68428094 -3.43530175 24.71053213 -3.43554688 20.73632812 C-3.43063523 18.2239563 -3.42480846 15.71158606 -3.41796875 13.19921875 C-3.41685593 12.00454483 -3.4157431 10.80987091 -3.41459656 9.57899475 C-3.40821671 8.48372971 -3.40183685 7.38846466 -3.39526367 6.26000977 C-3.39145187 5.29152603 -3.38764008 4.3230423 -3.38371277 3.32521057 C-3.20081038 0.32628356 -3.00133789 0.17716231 0 0 Z " fill="#FB924F" transform="translate(844.25,100.8671875)"/>
<path d="M0 0 C0.495 8.415 0.495 8.415 1 17 C2.64871094 16.98839844 4.29742188 16.97679688 5.99609375 16.96484375 C8.14322804 16.95546762 10.29036355 16.94636723 12.4375 16.9375 C13.52611328 16.92912109 14.61472656 16.92074219 15.73632812 16.91210938 C16.77080078 16.90888672 17.80527344 16.90566406 18.87109375 16.90234375 C19.82943115 16.89710693 20.78776855 16.89187012 21.77514648 16.88647461 C24 17 24 17 25 18 C25 21.3 25 24.6 25 28 C16.75 28 8.5 28 0 28 C0.09722637 34.12014399 0.20013946 40.23965656 0.31738281 46.359375 C0.35553044 48.43874388 0.39040745 50.51817555 0.421875 52.59765625 C0.46783554 55.59658158 0.52577764 58.59507988 0.5859375 61.59375 C0.59748871 62.51490601 0.60903992 63.43606201 0.62094116 64.38513184 C0.75488499 73.73133758 0.75488499 73.73133758 4.5625 82 C9.21925701 83.91046441 14.14115147 83.70223167 18.8125 81.9375 C19.534375 81.628125 20.25625 81.31875 21 81 C23.1875 81.0625 23.1875 81.0625 25 82 C26.55111482 84.65905398 26.98936864 86.55348273 27.0625 89.625 C26 92 26 92 23.1875 93.75 C15.29809751 96.56302466 7.01444822 96.80589833 -0.875 94.01171875 C-6.22014004 91.46688185 -8.78584115 87.31398123 -11 82 C-11.82154638 78.5889679 -12.12257813 75.43773655 -12.11352539 71.93432617 C-12.11344986 70.95368698 -12.11337433 69.97304779 -12.11329651 68.96269226 C-12.10813522 67.9166835 -12.10297394 66.87067474 -12.09765625 65.79296875 C-12.0962413 64.71243729 -12.09482635 63.63190582 -12.09336853 62.51863098 C-12.0877808 59.07489224 -12.0752305 55.63121902 -12.0625 52.1875 C-12.05748342 49.84961032 -12.05292079 47.51171961 -12.04882812 45.17382812 C-12.03781538 39.44919358 -12.02055912 33.7246079 -12 28 C-16.29 28 -20.58 28 -25 28 C-25 24.7 -25 21.4 -25 18 C-20.59085217 16.89771304 -16.51617599 16.92345464 -12 17 C-12 12.05 -12 7.1 -12 2 C-5 0 -5 0 0 0 Z " fill="#FDDE5E" transform="translate(574,84)"/>
<path d="M0 0 C1.50046875 0.00386719 1.50046875 0.00386719 3.03125 0.0078125 C4.0315625 0.00523438 5.031875 0.00265625 6.0625 0 C8.53125 0.1328125 8.53125 0.1328125 9.53125 1.1328125 C9.61996273 4.16259054 9.6464435 7.16948272 9.62890625 10.19921875 C9.6274913 11.10784164 9.62607635 12.01646454 9.62461853 12.95262146 C9.61900193 15.86688471 9.60644665 18.78107231 9.59375 21.6953125 C9.58873714 23.66601452 9.58417386 25.63671774 9.58007812 27.60742188 C9.56902711 32.44924809 9.55175138 37.29101745 9.53125 42.1328125 C9.20125 42.1328125 8.87125 42.1328125 8.53125 42.1328125 C8.20125 28.9328125 7.87125 15.7328125 7.53125 2.1328125 C4.56125 2.1328125 1.59125 2.1328125 -1.46875 2.1328125 C-1.46875 36.4528125 -1.46875 70.7728125 -1.46875 106.1328125 C1.83125 106.1328125 5.13125 106.1328125 8.53125 106.1328125 C8.52339478 103.96126587 8.52339478 103.96126587 8.51538086 101.74584961 C8.49723613 96.35799786 8.48578339 90.9701488 8.47631836 85.58227539 C8.47129978 83.25349472 8.4644835 80.92471719 8.45581055 78.59594727 C8.44363645 75.24234237 8.43799682 71.88877926 8.43359375 68.53515625 C8.42843246 67.49947006 8.42327118 66.46378387 8.41795349 65.39671326 C8.41711366 54.49465444 8.41711366 54.49465444 9.53125 50.1328125 C11.57774353 48.95079041 11.57774353 48.95079041 13.53125 48.1328125 C13.32062424 48.7190036 13.10999847 49.3051947 12.89299011 49.90914917 C10.64898288 56.65045573 10.06383974 62.75392024 10.01953125 69.828125 C10.00158005 70.90158173 9.98362885 71.97503845 9.96513367 73.08102417 C9.91141961 76.47324827 9.87726012 79.86533485 9.84375 83.2578125 C9.81054259 85.57293565 9.77604982 87.88804073 9.74023438 90.203125 C9.65571562 95.84625429 9.58871976 101.48934556 9.53125 107.1328125 C5.24125 107.1328125 0.95125 107.1328125 -3.46875 107.1328125 C-3.49187041 93.32940303 -3.50966354 79.52599813 -3.52056217 65.72257328 C-3.52579166 59.31382122 -3.5328905 52.90508235 -3.54418945 46.49633789 C-3.55501599 40.31721809 -3.56102634 34.13811102 -3.56362724 27.95898247 C-3.56548192 25.5957564 -3.56910332 23.23253106 -3.57448006 20.86931038 C-3.58168738 17.57179354 -3.58274107 14.27433003 -3.58227539 10.97680664 C-3.58587067 9.98922363 -3.58946594 9.00164062 -3.59317017 7.98413086 C-3.5917955 7.09085587 -3.59042084 6.19758087 -3.58900452 5.27723694 C-3.58992631 4.49647828 -3.5908481 3.71571962 -3.59179783 2.91130161 C-3.39540934 0.07277294 -2.84320933 0.15295746 0 0 Z " fill="#1B0F82" transform="translate(388.46875,70.8671875)"/>
<path d="M0 0 C2.0625 0.4375 2.0625 0.4375 4 1 C3.01 1.33 2.02 1.66 1 2 C1.33 21.47 1.66 40.94 2 61 C1.01 61.495 1.01 61.495 0 62 C-0.83193852 58.37361719 -1.12637881 55.02504146 -1.12939453 51.30761719 C-1.13254669 50.19006042 -1.13569885 49.07250366 -1.13894653 47.92108154 C-1.1369223 46.72509338 -1.13489807 45.52910522 -1.1328125 44.296875 C-1.13424759 42.44657684 -1.13424759 42.44657684 -1.13571167 40.55889893 C-1.13656518 37.29107895 -1.13254767 34.02330679 -1.12695312 30.75549316 C-1.12499594 28.74583434 -1.12695393 26.73621895 -1.13037109 24.7265625 C-1.13651925 20.87497917 -1.13580908 17.02346095 -1.1328125 13.171875 C-1.13483673 11.96778992 -1.13686096 10.76370483 -1.13894653 9.52313232 C-1.13579437 8.4181842 -1.13264221 7.31323608 -1.12939453 6.17480469 C-1.12820114 4.70850616 -1.12820114 4.70850616 -1.12698364 3.21258545 C-1 1 -1 1 0 0 Z " fill="#EC9C69" transform="translate(842,101)"/>
<path d="M0 0 C3.63 0 7.26 0 11 0 C12 1 12 1 12.11352539 4.87719727 C12.11336621 6.60694167 12.10766849 8.33669081 12.09765625 10.06640625 C12.0962413 10.97502914 12.09482635 11.88365204 12.09336853 12.81980896 C12.08775193 15.73407221 12.07519665 18.64825981 12.0625 21.5625 C12.05748714 23.53320202 12.05292386 25.50390524 12.04882812 27.47460938 C12.03777711 32.31643559 12.02050138 37.15820495 12 42 C11.67 42 11.34 42 11 42 C10.67 28.8 10.34 15.6 10 2 C7.03 2 4.06 2 1 2 C1 17.51 1 33.02 1 49 C0.67 49 0.34 49 0 49 C0 32.83 0 16.66 0 0 Z " fill="#17088B" transform="translate(386,71)"/>
<path d="M0 0 C2 4 2 4 2.8125 7.125 C3.7293027 10.21592394 3.7293027 10.21592394 6.625 11.375 C7.40875 11.58125 8.1925 11.7875 9 12 C8.4225 12.061875 7.845 12.12375 7.25 12.1875 C4.01312923 13.35637 2.80450953 15.12615149 1 18 C1.12563582 20.26424351 1.12563582 20.26424351 2 22 C-3.19988134 20.36575158 -6.42643587 17.43187184 -9.375 12.875 C-10 11 -10 11 -9 8 C-8.01 9.98 -7.02 11.96 -6 14 C-4.02 13.67 -2.04 13.34 0 13 C0.33 12.01 0.66 11.02 1 10 C0.34 9.67 -0.32 9.34 -1 9 C-0.67 6.03 -0.34 3.06 0 0 Z " fill="#F99351" transform="translate(853,155)"/>
<path d="M0 0 C2 0.875 2 0.875 3.3125 3.125 C4.11392725 6.330709 4.35797984 7.83951566 3 10.875 C-1.0501112 13.13371586 -4.35593314 14.2971879 -9 13.875 C-8.67 13.215 -8.34 12.555 -8 11.875 C-6.35 11.875 -4.7 11.875 -3 11.875 C-3 8.905 -3 5.935 -3 2.875 C-3.99 3.37 -3.99 3.37 -5 3.875 C-6.87379605 3.94533769 -8.75001102 3.9593022 -10.625 3.9375 C-11.62789062 3.92847656 -12.63078125 3.91945312 -13.6640625 3.91015625 C-14.43492187 3.89855469 -15.20578125 3.88695312 -16 3.875 C-16 3.545 -16 3.215 -16 2.875 C-15.15695312 2.74222656 -14.31390625 2.60945312 -13.4453125 2.47265625 C-12.34960938 2.29605469 -11.25390625 2.11945313 -10.125 1.9375 C-8.48917969 1.67646484 -8.48917969 1.67646484 -6.8203125 1.41015625 C-4.28845357 0.92973426 -2.52381675 -0.15773855 0 0 Z " fill="#F6DC73" transform="translate(597,165.125)"/>
<path d="M0 0 C0.33 0 0.66 0 1 0 C2.35714286 6.41558442 2.35714286 6.41558442 0.625 9.25 C0.08875 9.8275 -0.4475 10.405 -1 11 C-1.33 11.99 -1.66 12.98 -2 14 C-1.34 14 -0.68 14 0 14 C-1.04874998 16.62187494 -1.64931313 17.79371361 -4.125 19.25 C-4.74375 19.4975 -5.3625 19.745 -6 20 C-6 19.34 -6 18.68 -6 18 C-6.78375 18.48726562 -7.5675 18.97453125 -8.375 19.4765625 C-13.06027143 21.44558821 -16.97635708 21.44148939 -22 21.375 C-22.8765625 21.38660156 -23.753125 21.39820313 -24.65625 21.41015625 C-29.87032634 21.38659868 -33.4517755 20.82767905 -38 18 C-37.67 17.34 -37.34 16.68 -37 16 C-36.236875 16.309375 -35.47375 16.61875 -34.6875 16.9375 C-27.56112326 19.75490476 -18.75625319 20.64203979 -11.375 18.09375 C-5.60551247 14.68450737 -2.41587895 10.09454358 -0.75 3.625 C-0.5025 2.42875 -0.255 1.2325 0 0 Z " fill="#A14F1E" transform="translate(668,148)"/>
<path d="M0 0 C0.54269531 0.42152344 1.08539062 0.84304687 1.64453125 1.27734375 C2.35996094 1.82519531 3.07539062 2.37304688 3.8125 2.9375 C4.87404297 3.75541016 4.87404297 3.75541016 5.95703125 4.58984375 C9.86962038 7.29050279 13.31044021 7.13471051 17.9375 7.125 C19.77634766 7.12886719 19.77634766 7.12886719 21.65234375 7.1328125 C24.32762431 7.02667535 26.46927428 6.79917654 29 6 C29 6.66 29 7.32 29 8 C26.42788678 9.28605661 24.43093034 9.21043941 21.5546875 9.31640625 C20.47832031 9.35830078 19.40195312 9.40019531 18.29296875 9.44335938 C17.16503906 9.48267578 16.03710938 9.52199219 14.875 9.5625 C13.73933594 9.60568359 12.60367188 9.64886719 11.43359375 9.69335938 C8.62252232 9.7996604 5.81136055 9.90169405 3 10 C3.309375 10.61875 3.61875 11.2375 3.9375 11.875 C4.625 13.25 5.3125 14.625 6 16 C1.58110387 14.64978174 -0.34345343 12.73884332 -3 9 C-1.0625 8.4375 -1.0625 8.4375 1 8 C1.33 8.33 1.66 8.66 2 9 C2.33 7.68 2.66 6.36 3 5 C1.68 4.67 0.36 4.34 -1 4 C-0.67 2.68 -0.34 1.36 0 0 Z " fill="#49B0ED" transform="translate(945,160)"/>
<path d="M0 0 C0 9.24 0 18.48 0 28 C-0.66 28 -1.32 28 -2 28 C-2.33 21.07 -2.66 14.14 -3 7 C-4.98 6.34 -6.96 5.68 -9 5 C-2.63636364 0 -2.63636364 0 0 0 Z " fill="#3780D8" transform="translate(97,118)"/>
<path d="M0 0 C0.33 0.66 0.66 1.32 1 2 C0.3042688 3.68609375 0.3042688 3.68609375 -0.40551758 5.40625 C-2.50812697 10.72824401 -2.47659734 15.83584979 -2.51171875 21.5 C-2.52966995 22.57628662 -2.54762115 23.65257324 -2.56611633 24.76147461 C-2.61998001 28.17427743 -2.65403865 31.58694231 -2.6875 35 C-2.72069415 37.32423784 -2.75518573 39.64845754 -2.79101562 41.97265625 C-2.87569261 47.64831373 -2.94414319 53.32398961 -3 59 C-3.33 59 -3.66 59 -4 59 C-4.02541962 52.00741352 -4.04289615 45.01483903 -4.05493164 38.0222168 C-4.05995076 35.64493362 -4.06676746 33.26765352 -4.07543945 30.89038086 C-4.08761112 27.46727743 -4.09325262 24.04421493 -4.09765625 20.62109375 C-4.10281754 19.56353378 -4.10797882 18.50597382 -4.11329651 17.41636658 C-4.11410254 6.73942653 -4.11410254 6.73942653 -3 2 C-2.01 1.34 -1.02 0.68 0 0 Z " fill="#180D80" transform="translate(401,119)"/>
<path d="M0 0 C0.33 0 0.66 0 1 0 C1.01981934 1.29099609 1.03963867 2.58199219 1.06005859 3.91210938 C1.13645985 8.72805407 1.2251229 13.54371017 1.31738281 18.359375 C1.35553044 20.43874388 1.39040745 22.51817555 1.421875 24.59765625 C1.46783554 27.59658158 1.52577764 30.59507988 1.5859375 33.59375 C1.59748871 34.51490601 1.60903992 35.43606201 1.62094116 36.38513184 C1.7591063 42.50641464 2.21356593 48.42713186 5 54 C4.01 54 3.02 54 2 54 C2 53.34 2 52.68 2 52 C1.34 52 0.68 52 0 52 C0 34.84 0 17.68 0 0 Z " fill="#F6DC6A" transform="translate(573,112)"/>
<path d="M0 0 C2.0625 0.4375 2.0625 0.4375 4 1 C2.68 1.33 1.36 1.66 0 2 C0 7.28 0 12.56 0 18 C-3.20015856 19.06671952 -4.88544294 18.94845472 -8.1875 18.5625 C-9.08855469 18.46066406 -9.98960937 18.35882813 -10.91796875 18.25390625 C-11.60503906 18.17011719 -12.29210937 18.08632812 -13 18 C-13 20.64 -13 23.28 -13 26 C-9.37 26 -5.74 26 -2 26 C-2 26.33 -2 26.66 -2 27 C-5.96 27 -9.92 27 -14 27 C-14 23.7 -14 20.4 -14 17 C-9.59085217 15.89771304 -5.51617599 15.92345464 -1 16 C-1.01160156 14.92878906 -1.02320313 13.85757813 -1.03515625 12.75390625 C-1.04453299 11.35677257 -1.05363331 9.95963701 -1.0625 8.5625 C-1.07506836 7.50192383 -1.07506836 7.50192383 -1.08789062 6.41992188 C-1.09653588 4.61306441 -1.05220011 2.80612397 -1 1 C-0.67 0.67 -0.34 0.34 0 0 Z " fill="#F3DF8C" transform="translate(563,85)"/>
<path d="M0 0 C2.49164916 3.13902628 4.4408295 6.39517373 6.3125 9.9375 C7.14201172 11.46697266 7.14201172 11.46697266 7.98828125 13.02734375 C9 16 9 16 8.39453125 18.671875 C6.94202384 21.09678934 5.57762266 22.55855973 3.375 24.3125 C2.74335937 24.82425781 2.11171875 25.33601563 1.4609375 25.86328125 C0.97882813 26.23839844 0.49671875 26.61351562 0 27 C0.375 25.0625 0.375 25.0625 1 23 C1.66 22.67 2.32 22.34 3 22 C3.33 21.01 3.66 20.02 4 19 C4.99 19 5.98 19 7 19 C7 18.01 7 17.02 7 16 C6.34 16 5.68 16 5 16 C4.71125 15.195625 4.4225 14.39125 4.125 13.5625 C3.26737432 10.8673532 3.26737432 10.8673532 1 10 C0.5859375 7.71484375 0.5859375 7.71484375 0.375 4.9375 C0.30023438 4.01839844 0.22546875 3.09929687 0.1484375 2.15234375 C0.09945312 1.44207031 0.05046875 0.73179687 0 0 Z " fill="#2E7ED6" transform="translate(112,213)"/>
<path d="M0 0 C0 0.99 0 1.98 0 3 C-0.66 3.66 -1.32 4.32 -2 5 C-2.12375 6.155 -2.2475 7.31 -2.375 8.5 C-3 12 -3 12 -4.6875 13.25 C-5.450625 13.4975 -6.21375 13.745 -7 14 C-8.0725 14.53625 -9.145 15.0725 -10.25 15.625 C-11.61125 16.305625 -11.61125 16.305625 -13 17 C-11.51299286 12.17170572 -8.78716744 9.2512231 -5.375 5.6875 C-4.6015625 4.86282227 -4.6015625 4.86282227 -3.8125 4.02148438 C-2.54799382 2.67501946 -1.27485078 1.33667465 0 0 Z " fill="#2F82E6" transform="translate(42,153)"/>
<path d="M0 0 C7.36095182 0.31323199 13.30883089 1.93914605 20 5 C18.0625 5.5625 18.0625 5.5625 16 6 C15.67 5.67 15.34 5.34 15 5 C13.00041636 4.95919217 10.99954746 4.95745644 9 5 C9 4.34 9 3.68 9 3 C4.545 4.485 4.545 4.485 0 6 C0 4 0 2 0 0 Z " fill="#E8312C" transform="translate(139,1)"/>
<path d="M0 0 C-0.99 1.32 -1.98 2.64 -3 4 C-1.7934375 4.680625 -1.7934375 4.680625 -0.5625 5.375 C2 7 2 7 3 9 C4.65 8.67 6.3 8.34 8 8 C8.66 9.98 9.32 11.96 10 14 C3.36040074 12.34010018 -2.0943023 8.73944044 -6 3.125 C-6.495 2.073125 -6.495 2.073125 -7 1 C-3.375 -1.125 -3.375 -1.125 0 0 Z " fill="#DF81B1" transform="translate(14,139)"/>
<path d="M0 0 C1.1725131 0.95117134 2.33787015 1.91117009 3.5 2.875 C4.1496875 3.40867187 4.799375 3.94234375 5.46875 4.4921875 C6.22671875 5.23855469 6.22671875 5.23855469 7 6 C7 6.66 7 7.32 7 8 C4.73194205 8.69809445 2.46133393 9.38371017 0.1875 10.0625 C-0.45509766 10.26166016 -1.09769531 10.46082031 -1.75976562 10.66601562 C-6.66015625 12.11328125 -6.66015625 12.11328125 -10 11 C-8.58970126 8.17940253 -6.92108419 8.01898286 -4 7 C-1.05372853 6.10719046 0.7946369 6 4 6 C3.34 5.38125 2.68 4.7625 2 4.125 C0 2 0 2 0 0 Z " fill="#DD7BA7" transform="translate(120,90)"/>
<path d="M0 0 C0.33 0 0.66 0 1 0 C0.67 6.27 0.34 12.54 0 19 C0.66 19 1.32 19 2 19 C2.33 22.63 2.66 26.26 3 30 C-1.25159312 25.74840688 -2.15995958 17.64040695 -2.3125 11.75 C-1.96686847 7.60242164 -1.1417219 3.99602664 0 0 Z " fill="#3480D9" transform="translate(25,176)"/>
<path d="M0 0 C0.33 0 0.66 0 1 0 C1 3.96 1 7.92 1 12 C1.66 12 2.32 12 3 12 C3.33 11.01 3.66 10.02 4 9 C6 11 6 11 6 15 C6.66 15 7.32 15 8 15 C8 15.66 8 16.32 8 17 C4.59687262 15.94124926 1.98646769 14.99097846 -1 13 C-1.2982655 8.45145106 -1.10962199 4.43848796 0 0 Z " fill="#E1322D" transform="translate(72,30)"/>
<path d="M0 0 C1.17219543 0.78345715 2.33763668 1.57702836 3.5 2.375 C4.47453125 3.03628906 4.47453125 3.03628906 5.46875 3.7109375 C5.9740625 4.13632813 6.479375 4.56171875 7 5 C7 5.66 7 6.32 7 7 C7.721875 7.103125 8.44375 7.20625 9.1875 7.3125 C12.26019548 8.06360334 14.30203026 9.38121815 17 11 C19.69254991 11.70670728 19.69254991 11.70670728 22 12 C22 12.66 22 13.32 22 14 C14.12472694 13.65759682 7.52328272 9.6415426 1.875 4.25 C0 2 0 2 0 0 Z " fill="#31B05C" transform="translate(134,232)"/>
<path d="M0 0 C1.32 0 2.64 0 4 0 C2.18776901 5.98036226 -1.77092138 10.37885192 -6.75 14 C-7.4925 14.33 -8.235 14.66 -9 15 C-9.66 14.67 -10.32 14.34 -11 14 C-10.67 12.68 -10.34 11.36 -10 10 C-8.5459375 9.814375 -8.5459375 9.814375 -7.0625 9.625 C-6.051875 9.41875 -5.04125 9.2125 -4 9 C-3.67 8.34 -3.34 7.68 -3 7 C-2.34 6.67 -1.68 6.34 -1 6 C-0.34227572 2.97065509 -0.34227572 2.97065509 0 0 Z " fill="#51AFEF" transform="translate(989,162)"/>
<path d="M0 0 C9.47681605 1.72305746 16.29449776 6.26996471 22 14 C21.67 14.66 21.34 15.32 21 16 C19.62437146 14.71034824 18.29233607 13.37310707 17 12 C17 11.34 17 10.68 17 10 C16.4225 9.731875 15.845 9.46375 15.25 9.1875 C13 8 13 8 11.3125 6.625 C7.81709574 4.16876998 3.92572943 2.65249722 0 1 C0 0.67 0 0.34 0 0 Z " fill="#E875B9" transform="translate(511,101)"/>
<path d="M0 0 C6.08233706 0.67581523 12.01314152 1.73638028 18 3 C18 3.33 18 3.66 18 4 C16.54176788 4.0270043 15.08339325 4.04639787 13.625 4.0625 C12.81289062 4.07410156 12.00078125 4.08570313 11.1640625 4.09765625 C9 4 9 4 7 3 C7 3.66 7 4.32 7 5 C6.34 5 5.68 5 5 5 C4.67 5.66 4.34 6.32 4 7 C3.01 6.34 2.02 5.68 1 5 C1 4.01 1 3.02 1 2 C0.67 1.34 0.34 0.68 0 0 Z " fill="#2AB951" transform="translate(129,161)"/>
<path d="M0 0 C0.66 0.33 1.32 0.66 2 1 C2.4140625 4.16015625 2.4140625 4.16015625 2.625 8.0625 C2.69976563 9.35285156 2.77453125 10.64320313 2.8515625 11.97265625 C2.90054688 12.97167969 2.94953125 13.97070312 3 15 C2.01 14.67 1.02 14.34 0 14 C0.061875 14.928125 0.12375 15.85625 0.1875 16.8125 C0 20 0 20 -1.51171875 21.69921875 C-2.00285156 22.12847656 -2.49398437 22.55773437 -3 23 C-2.86722656 22.42894531 -2.73445312 21.85789063 -2.59765625 21.26953125 C-1.05933154 14.20671195 -0.42935274 7.20860655 0 0 Z " fill="#4DB0E4" transform="translate(985,134)"/>
<path d="M0 0 C0 1.66666667 0 3.33333333 0 5 C0.33 5.99 0.66 6.98 1 8 C1.99 8.33 2.98 8.66 4 9 C2.68 9.99 1.36 10.98 0 12 C-1.5 10.6875 -1.5 10.6875 -3 9 C-3 8.01 -3 7.02 -3 6 C-5.64 6 -8.28 6 -11 6 C-11 5.67 -11 5.34 -11 5 C-10.37351562 4.80664062 -9.74703125 4.61328125 -9.1015625 4.4140625 C-8.28429687 4.15367187 -7.46703125 3.89328125 -6.625 3.625 C-5.81289063 3.36976563 -5.00078125 3.11453125 -4.1640625 2.8515625 C-1.83540815 2.10145717 -1.83540815 2.10145717 0 0 Z " fill="#F0945C" transform="translate(883,163)"/>
<path d="M0 0 C4.90974115 3.22640133 7.89672543 7.5615329 10 13 C9.67 13.99 9.34 14.98 9 16 C8.67 16 8.34 16 8 16 C8 14.35 8 12.7 8 11 C6.824375 10.566875 6.824375 10.566875 5.625 10.125 C3 9 3 9 1 7 C0.59952556 4.67724823 0.2602896 2.34260643 0 0 Z " fill="#E82F2C" transform="translate(169,13)"/>
<path d="M0 0 C2.18923835 2.18923835 3.45301477 4.52933537 4.90234375 7.24609375 C7.38161692 11.20763701 9.69423509 12.46206412 14.1875 13.6875 C15.08855469 13.93886719 15.98960937 14.19023437 16.91796875 14.44921875 C17.60503906 14.63097656 18.29210937 14.81273437 19 15 C18.67 15.66 18.34 16.32 18 17 C11.74206578 15.50538658 7.07328156 14.3076093 3 9 C1.08924361 5.70559244 0 3.81633363 0 0 Z " fill="#F6DF7C" transform="translate(563,163)"/>
<path d="M0 0 C1.04625409 1.29735507 2.04701223 2.63266972 3 4 C3.99 4.33 4.98 4.66 6 5 C6.33 5.99 6.66 6.98 7 8 C2.22953336 7.42176162 -0.99802151 5.53971712 -5 3 C-5.33 2.34 -5.66 1.68 -6 1 C-4 0 -4 0 0 0 Z " fill="#A3501A" transform="translate(629,170)"/>
<path d="M0 0 C0.33 0 0.66 0 1 0 C1 3.3 1 6.6 1 10 C0.34 10 -0.32 10 -1 10 C-0.9175 10.639375 -0.835 11.27875 -0.75 11.9375 C-1.1145247 16.40292757 -3.05237724 20.00911228 -5 24 C-6.38534923 21.22930155 -5.61733726 19.94727925 -4.78515625 16.9921875 C-4.51123047 16.00605469 -4.23730469 15.01992187 -3.95507812 14.00390625 C-3.66052734 12.97136719 -3.36597656 11.93882813 -3.0625 10.875 C-2.77181641 9.83472656 -2.48113281 8.79445313 -2.18164062 7.72265625 C-1.46080936 5.14657073 -0.73334318 2.57254641 0 0 Z " fill="#F2AF22" transform="translate(188,63)"/>
<path d="M0 0 C0 0.66 0 1.32 0 2 C-1.0725 2.2475 -2.145 2.495 -3.25 2.75 C-6.99562872 3.67845994 -6.99562872 3.67845994 -9 6.0625 C-11.77531384 8.75108528 -14.23988771 8.71076059 -18 9 C-13.5012408 3.60148896 -7.16597417 0 0 0 Z " fill="#EA71B8" transform="translate(496,101)"/>
<path d="M0 0 C2.17260367 3.2589055 3.35021087 6.32149695 4.6875 10 C5.14511719 11.2375 5.60273437 12.475 6.07421875 13.75 C7 17 7 17 6 20 C5.73445313 19.43410156 5.46890625 18.86820313 5.1953125 18.28515625 C4.84210938 17.55167969 4.48890625 16.81820312 4.125 16.0625 C3.77695313 15.33160156 3.42890625 14.60070312 3.0703125 13.84765625 C2.1315023 11.83667541 2.1315023 11.83667541 0 11 C0 7.37 0 3.74 0 0 Z " fill="#2C84DC" transform="translate(105,193)"/>
<path d="M0 0 C5 1.66666667 10 3.33333333 15 5 C13.265625 6.1171875 13.265625 6.1171875 11 7 C8.859375 6.3203125 8.859375 6.3203125 6.75 5.125 C6.04359375 4.73570312 5.3371875 4.34640625 4.609375 3.9453125 C4.07828125 3.63335937 3.5471875 3.32140625 3 3 C2.67 5.31 2.34 7.62 2 10 C1.67 10 1.34 10 1 10 C0.67 6.7 0.34 3.4 0 0 Z " fill="#32AF5D" transform="translate(107,153)"/>
<path d="M0 0 C2.8442585 1.15877198 4.27847757 2.29275847 6.4375 4.5625 C9.1178537 7.11210474 10.39068083 7.69062979 14 8 C14 9.98 14 11.96 14 14 C9.10565787 9.90473413 4.29279666 5.73642915 0 1 C0 0.67 0 0.34 0 0 Z " fill="#D7352C" transform="translate(121,77)"/>
<path d="M0 0 C0.33 0 0.66 0 1 0 C1.32158653 5.35977551 0.53409332 8.32167388 -2 13 C-2.77345631 15.31568133 -3.38507209 17.63489266 -4 20 C-4.97812873 16.94371936 -5.00835683 15.14722553 -4.00390625 12.109375 C-3.77509766 11.40039062 -3.54628906 10.69140625 -3.31054688 9.9609375 C-3.06369141 9.23132813 -2.81683594 8.50171875 -2.5625 7.75 C-2.19801758 6.63238281 -2.19801758 6.63238281 -1.82617188 5.4921875 C-1.22667019 3.65841765 -0.61455513 1.82877996 0 0 Z " fill="#DB83AE" transform="translate(6,81)"/>
<path d="M0 0 C2.83374881 3.20336822 3.5205537 5.78087253 4 10 C4.66 10 5.32 10 6 10 C6.33 12.97 6.66 15.94 7 19 C4.39350532 16.39350532 3.55975019 13.46865679 2.375 10.0625 C2.03082031 9.11213867 2.03082031 9.11213867 1.6796875 8.14257812 C0.67198284 5.29041404 0 3.04816693 0 0 Z " fill="#32B05C" transform="translate(116,193)"/>
<path d="M0 0 C0.66 0 1.32 0 2 0 C0.99667352 5.94074887 -0.30912706 10.20186518 -4 15 C-5.34882814 12.30234372 -4.80338265 10.84835666 -4 8 C-3.34 7.67 -2.68 7.34 -2 7 C-1.39938767 5.09821215 -1.39938767 5.09821215 -1 3 C-0.67 2.01 -0.34 1.02 0 0 Z " fill="#EE6FB7" transform="translate(535,152)"/>
<path d="M0 0 C0.66 0 1.32 0 2 0 C3.49524178 2.2727675 4.78399715 4.5679943 6 7 C4.02 7.33 2.04 7.66 0 8 C-1.09658936 4.71023192 -0.79953138 3.28696233 0 0 Z " fill="#36B6FD" transform="translate(986,111)"/>
<path d="M0 0 C0.66 0 1.32 0 2 0 C6 6 6 6 6 8 C6.66 8 7.32 8 8 8 C8.33 9.65 8.66 11.3 9 13 C5.41193683 9.61127367 2.54315201 6.23858668 0 2 C0 1.34 0 0.68 0 0 Z " fill="#ED72B9" transform="translate(471,159)"/>
<path d="M0 0 C0.33 0.66 0.66 1.32 1 2 C0.0625 4.625 0.0625 4.625 -1 7 C-1.66 7 -2.32 7 -3 7 C-2.67 7.99 -2.34 8.98 -2 10 C-3.65 9.67 -5.3 9.34 -7 9 C-6.02180976 7.68677212 -5.0424189 6.37443848 -4.0625 5.0625 C-3.51722656 4.33160156 -2.97195312 3.60070312 -2.41015625 2.84765625 C-1 1 -1 1 0 0 Z " fill="#EEB426" transform="translate(151,145)"/>
<path d="M0 0 C1.4540625 0.0309375 1.4540625 0.0309375 2.9375 0.0625 C-2.43346774 5.73185484 -2.43346774 5.73185484 -6.0625 7.0625 C-7.0525 7.0625 -8.0425 7.0625 -9.0625 7.0625 C-9.0625 6.4025 -9.0625 5.7425 -9.0625 5.0625 C-7.7425 5.0625 -6.4225 5.0625 -5.0625 5.0625 C-4.918125 4.423125 -4.77375 3.78375 -4.625 3.125 C-3.73376283 -0.14286963 -3.55757083 0.07260349 0 0 Z " fill="#F3B024" transform="translate(237.0625,145.9375)"/>
<path d="M0 0 C0.66 0.99 1.32 1.98 2 3 C1.4375 5.5625 1.4375 5.5625 0 8 C-2.625 9.3125 -2.625 9.3125 -5 10 C-3.66511872 6.40608886 -2.03977277 3.24509304 0 0 Z " fill="#F1B41B" transform="translate(164,125)"/>
<path d="M0 0 C3.875 1.875 3.875 1.875 5 3 C5.08631874 4.34267413 5.10706473 5.68974322 5.09765625 7.03515625 C5.09282227 8.24848633 5.09282227 8.24848633 5.08789062 9.48632812 C5.07951172 10.33646484 5.07113281 11.18660156 5.0625 12.0625 C5.05798828 12.91650391 5.05347656 13.77050781 5.04882812 14.65039062 C5.03700373 16.76695663 5.01906769 18.88348685 5 21 C4.67 21 4.34 21 4 21 C3.96261719 20.07058594 3.92523438 19.14117187 3.88671875 18.18359375 C3.3870535 8.70760996 3.3870535 8.70760996 0 0 Z " fill="#33B15B" transform="translate(348,94)"/>
<path d="M0 0 C6.59346009 1.23627377 10.24477955 4.38064299 15 9 C11.39451947 9 10.72228959 8.22732784 8 6 C5.34291806 3.84112092 3.39136066 2.60560012 0 2 C0 1.34 0 0.68 0 0 Z " fill="#2DB75A" transform="translate(345,79)"/>
<path d="M0 0 C5.06998019 0.65419099 9.41990777 2.8546409 14 5 C9.82651218 6.31455674 7.14107384 5.30367139 3 4 C2.34 4 1.68 4 1 4 C0.67 2.68 0.34 1.36 0 0 Z " fill="#DB80AD" transform="translate(59,49)"/>
<path d="M0 0 C0.99 0.66 1.98 1.32 3 2 C-5.42857143 5.42857143 -5.42857143 5.42857143 -10 5 C-9.34 4.67 -8.68 4.34 -8 4 C-7.67 3.01 -7.34 2.02 -7 1 C-6.67 1.66 -6.34 2.32 -6 3 C-4.02 2.01 -2.04 1.02 0 0 Z " fill="#2DB459" transform="translate(181,241)"/>
<path d="M0 0 C0.66 0 1.32 0 2 0 C2 0.66 2 1.32 2 2 C2.66 2 3.32 2 4 2 C4 3.32 4 4.64 4 6 C2.35 6.33 0.7 6.66 -1 7 C-1.625 4.625 -1.625 4.625 -2 2 C-1.34 1.34 -0.68 0.68 0 0 Z " fill="#FD8F4A" transform="translate(883,165)"/>
<path d="M0 0 C0.99 0.33 1.98 0.66 3 1 C0.33333333 5 -2.33333333 9 -5 13 C-5 11.02 -5 9.04 -5 7 C-4.34 7 -3.68 7 -3 7 C-2.87625 6.030625 -2.7525 5.06125 -2.625 4.0625 C-2.41875 3.051875 -2.2125 2.04125 -2 1 C-1.34 0.67 -0.68 0.34 0 0 Z " fill="#EB70B5" transform="translate(486,115)"/>
<path d="M0 0 C0.66 0.33 1.32 0.66 2 1 C2 2.32 2 3.64 2 5 C3.0551021 6.74668165 3.0551021 6.74668165 4.5 8.25 C5.325 9.1575 6.15 10.065 7 11 C3.78475695 9.59155282 1.67816132 7.89655214 -0.75 5.375 C-1.36359375 4.74335938 -1.9771875 4.11171875 -2.609375 3.4609375 C-3.06828125 2.97882813 -3.5271875 2.49671875 -4 2 C-2.125 0.9375 -2.125 0.9375 0 0 Z " fill="#3281DB" transform="translate(42,220)"/>
<path d="M0 0 C0.45375 0.61875 0.9075 1.2375 1.375 1.875 C2.97108919 4.05919833 2.97108919 4.05919833 5 6 C8.80769231 10.61538462 8.80769231 10.61538462 10 13 C5.9670885 12.07819166 4.34821128 10.42703613 2.1875 7.0625 C0.5201323 4.31775625 0 3.28567269 0 0 Z " fill="#ED945F" transform="translate(843,163)"/>
<path d="M0 0 C0 3.75973885 -0.96542407 4.45677629 -3.4375 7.1875 C-4.07558594 7.90292969 -4.71367187 8.61835938 -5.37109375 9.35546875 C-5.90863281 9.89816406 -6.44617188 10.44085938 -7 11 C-7.33 11 -7.66 11 -8 11 C-8 9.35 -8 7.7 -8 6 C-7.01 6 -6.02 6 -5 6 C-4.34 5.01 -3.68 4.02 -3 3 C-2.01904252 1.98131338 -1.02297922 0.97648017 0 0 Z " fill="#27B059" transform="translate(221,212)"/>
<path d="M0 0 C2 4 2 4 3 7.1875 C3.67987492 10.12865478 3.67987492 10.12865478 6 11 C1.25 10.125 1.25 10.125 -1 9 C-0.67 6.03 -0.34 3.06 0 0 Z " fill="#F0995A" transform="translate(853,155)"/>
<path d="M0 0 C-5.75 5 -5.75 5 -8 5 C-8.33 3.68 -8.66 2.36 -9 1 C-2.25 -1.125 -2.25 -1.125 0 0 Z " fill="#2BB659" transform="translate(359,129)"/>
<path d="M0 0 C2.27795022 2.27795022 3.05219877 3.93787293 4 7 C3.625 9.3125 3.625 9.3125 3 11 C2.34 9.68 1.68 8.36 1 7 C0.34 7 -0.32 7 -1 7 C-1.33 6.01 -1.66 5.02 -2 4 C-1.34 4 -0.68 4 0 4 C0 2.68 0 1.36 0 0 Z " fill="#EB71B8" transform="translate(533,117)"/>
<path d="M0 0 C0 0.66 0 1.32 0 2 C-0.66 2 -1.32 2 -2 2 C-2.66 3.32 -3.32 4.64 -4 6 C-5.98 6 -7.96 6 -10 6 C-4.4 0 -4.4 0 0 0 Z " fill="#E63329" transform="translate(94,7)"/>
<path d="M0 0 C1.25 2.5625 1.25 2.5625 2 5 C1.34 4.67 0.68 4.34 0 4 C0 3.34 0 2.68 0 2 C-2.97 1.67 -5.94 1.34 -9 1 C-9 0.67 -9 0.34 -9 0 C-3.07058824 -1.48235294 -3.07058824 -1.48235294 0 0 Z " fill="#35B258" transform="translate(223,166)"/>
<path d="M0 0 C3.55007718 3.9050849 4.81819916 6.97734643 6 12 C4.5 10.625 4.5 10.625 3 9 C3 8.34 3 7.68 3 7 C2.34 7 1.68 7 1 7 C0.67 4.69 0.34 2.38 0 0 Z " fill="#9F5320" transform="translate(674,113)"/>
<path d="M0 0 C1 2 1 2 0.3125 5.0625 C-1 8 -1 8 -3.125 8.875 C-3.74375 8.91625 -4.3625 8.9575 -5 9 C-3.7508258 5.54074837 -2.32472205 2.85306797 0 0 Z " fill="#E973B8" transform="translate(477,110)"/>
<path d="M0 0 C1.0625 1.875 1.0625 1.875 2 4 C1.67 4.66 1.34 5.32 1 6 C-2.37503669 4.8141763 -4.64722731 3.72426311 -7 1 C-4.03 1.495 -4.03 1.495 -1 2 C-0.67 1.34 -0.34 0.68 0 0 Z " fill="#E4342F" transform="translate(94,50)"/>
<path d="M0 0 C0.66 0 1.32 0 2 0 C3.75 2.25 3.75 2.25 5 5 C4.1875 7.3125 4.1875 7.3125 3 9 C0 3.375 0 3.375 0 0 Z " fill="#EF6DB8" transform="translate(481,155)"/>
<path d="M0 0 C2.16147703 1.08073852 3.41039672 2.19363264 5 4 C5 4.66 5 5.32 5 6 C4.34 6 3.68 6 3 6 C2.67 7.98 2.34 9.96 2 12 C1.34 11.67 0.68 11.34 0 11 C0 7.37 0 3.74 0 0 Z " fill="#B3480A" transform="translate(668,120)"/>
<path d="M0 0 C-1.78953185 0.83790789 -3.58169695 1.67019396 -5.375 2.5 C-6.87160156 3.19609375 -6.87160156 3.19609375 -8.3984375 3.90625 C-11 5 -11 5 -13 5 C-12 2 -12 2 -10.0390625 1.015625 C-9.24242188 0.76296875 -8.44578125 0.5103125 -7.625 0.25 C-6.83351563 -0.01296875 -6.04203125 -0.2759375 -5.2265625 -0.546875 C-3 -1 -3 -1 0 0 Z " fill="#D980A9" transform="translate(102,106)"/>
<path d="M0 0 C2.375 0.5625 2.375 0.5625 5 2 C6.3125 5.625 6.3125 5.625 7 9 C4.03595495 6.19195732 1.55500981 3.81684226 0 0 Z " fill="#E23836" transform="translate(141,98)"/>
<path d="M0 0 C0.33 0 0.66 0 1 0 C1.33 3.3 1.66 6.6 2 10 C1.34 9.67 0.68 9.34 0 9 C0 8.34 0 7.68 0 7 C-0.99 6.67 -1.98 6.34 -3 6 C-2.67 5.34 -2.34 4.68 -2 4 C-1.34 4 -0.68 4 0 4 C0 2.68 0 1.36 0 0 Z " fill="#2983E1" transform="translate(101,175)"/>
<path d="M0 0 C0 3.62453269 -0.92469613 5.07920195 -3 8 C-3.99 8.33 -4.98 8.66 -6 9 C-4.68775452 5.06326356 -3.08089673 2.77280706 0 0 Z " fill="#357DD4" transform="translate(35,161)"/>
<path d="M0 0 C0.33 0.99 0.66 1.98 1 3 C-0.28524261 3.86380259 -1.57842419 4.71580369 -2.875 5.5625 C-3.59429687 6.03816406 -4.31359375 6.51382813 -5.0546875 7.00390625 C-5.69664063 7.33261719 -6.33859375 7.66132813 -7 8 C-7.66 7.67 -8.32 7.34 -9 7 C-6.03 4.69 -3.06 2.38 0 0 Z " fill="#347DD5" transform="translate(57,141)"/>
<path d="M0 0 C0.66 0.33 1.32 0.66 2 1 C0.3125 3.5 0.3125 3.5 -2 6 C-4.75 6.3125 -4.75 6.3125 -7 6 C-6.21625 5.38125 -5.4325 4.7625 -4.625 4.125 C-2.03162353 2.10141339 -2.03162353 2.10141339 0 0 Z " fill="#3380DA" transform="translate(65,135)"/>
<path d="M0 0 C2.0625 0.4375 2.0625 0.4375 4 1 C2.92598892 3.91517292 2.22189824 5.77810176 0 8 C-0.38063221 5.6739143 -0.71269945 3.33944736 -1 1 C-0.67 0.67 -0.34 0.34 0 0 Z " fill="#A24C19" transform="translate(625,117)"/>
<path d="M0 0 C3.08089673 2.77280706 4.68775452 5.06326356 6 9 C4.125 8.4375 4.125 8.4375 2 7 C0.75 3.375 0.75 3.375 0 0 Z " fill="#4EACEC" transform="translate(987,108)"/>
<path d="M0 0 C1.65 0.33 3.3 0.66 5 1 C4.34 2.65 3.68 4.3 3 6 C1.68 4.68 0.36 3.36 -1 2 C-0.67 1.34 -0.34 0.68 0 0 Z " fill="#E63422" transform="translate(154,114)"/>
<path d="M0 0 C1 2 1 2 0.375 4 C-1.39265071 6.57112831 -3.07589059 7.07659703 -6 8 C-4.73058503 4.08597051 -3.48832306 2.20927127 0 0 Z " fill="#160786" transform="translate(405,105)"/>
<path d="M0 0 C1.47177418 3.82661288 0.57016757 6.31010622 -1 10 C-1.96715918 11.03179606 -2.96225307 12.0392288 -4 13 C-3.52140759 11.39566191 -3.04210442 9.79153584 -2.5625 8.1875 C-2.29566406 7.29417969 -2.02882812 6.40085937 -1.75390625 5.48046875 C-1.19612127 3.64526945 -0.60655425 1.81966274 0 0 Z " fill="#ECAC35" transform="translate(181,87)"/>
<path d="M0 0 C0.99 0 1.98 0 3 0 C3 0.66 3 1.32 3 2 C3.99 2.33 4.98 2.66 6 3 C4.1875 4.0625 4.1875 4.0625 2 5 C1.01 4.67 0.02 4.34 -1 4 C-0.67 2.68 -0.34 1.36 0 0 Z " fill="#A04F1C" transform="translate(660,172)"/>
<path d="M0 0 C2.97 0.33 5.94 0.66 9 1 C9 2.32 9 3.64 9 5 C4.89198233 3.81323934 3.10551666 3.10551666 0 0 Z " fill="#F1312C" transform="translate(117,74)"/>
<path d="M0 0 C0.99 0 1.98 0 3 0 C3 1.98 3 3.96 3 6 C2.01 6 1.02 6 0 6 C0 4.02 0 2.04 0 0 Z " fill="#FDDE53" transform="translate(596,169)"/>
<path d="M0 0 C0.33 0 0.66 0 1 0 C1.8125 3.1875 1.8125 3.1875 2 7 C-0.4375 9.9375 -0.4375 9.9375 -3 12 C-2.01 8.04 -1.02 4.08 0 0 Z " fill="#9D501D" transform="translate(668,148)"/>
<path d="M0 0 C2.475 0.99 2.475 0.99 5 2 C3.35 3.32 1.7 4.64 0 6 C-0.66 5.01 -1.32 4.02 -2 3 C-1.34 2.01 -0.68 1.02 0 0 Z " fill="#4AB3EF" transform="translate(950,110)"/>
<path d="M0 0 C3.36720387 1.39332574 4.9859524 2.9789286 7 6 C4.69 5.34 2.38 4.68 0 4 C0 2.66666667 0 1.33333333 0 0 Z " fill="#9F501C" transform="translate(666,106)"/>
<path d="M0 0 C0.66 0.33 1.32 0.66 2 1 C1.375 2.875 1.375 2.875 0 5 C-3.125 6.25 -3.125 6.25 -6 7 C-4.02 4.69 -2.04 2.38 0 0 Z " fill="#4DACDF" transform="translate(948,105)"/>
<path d="M0 0 C1.13643966 3.40931897 0.86747764 4.00335456 -0.4375 7.1875 C-0.86869141 8.26064453 -0.86869141 8.26064453 -1.30859375 9.35546875 C-1.53675781 9.89816406 -1.76492187 10.44085938 -2 11 C-2.33 11 -2.66 11 -3 11 C-3.32613618 6.32538149 -2.70582788 3.83325617 0 0 Z " fill="#D43B30" transform="translate(170,87)"/>
<path d="M0 0 C2.475 0.495 2.475 0.495 5 1 C5.33 2.98 5.66 4.96 6 7 C1.125 3.375 1.125 3.375 0 0 Z " fill="#E03136" transform="translate(135,91)"/>
<path d="M0 0 C1.32 0.33 2.64 0.66 4 1 C3.01 1.495 3.01 1.495 2 2 C1.34 1.34 0.68 0.68 0 0 Z " fill="#615454" transform="translate(628,129)"/>
</svg>
